# Blender 4.0.1
# www.blender.org
o Cube
v -1.000000 -1.000000 1.000000
v -1.000000 1.000000 1.000000
v -1.000000 -1.000000 -1.000000
v -1.000000 1.000000 -1.000000
v 1.000000 -1.000000 1.000000
v 1.000000 1.000000 1.000000
v 1.000000 -1.000000 -1.000000
v 1.000000 1.000000 -1.000000
vn -1.0000 -0.0000 -0.0000
vn -0.0000 -0.0000 -1.0000
vn 1.0000 -0.0000 -0.0000
vn -0.0000 -0.0000 1.0000
vn -0.0000 -1.0000 -0.0000
vn -0.0000 1.0000 -0.0000
s 0
f 2//1 3//1 1//1
f 4//2 7//2 3//2
f 8//3 5//3 7//3
f 6//4 1//4 5//4
f 7//5 1//5 3//5
f 4//6 6//6 8//6
f 2//1 4//1 3//1
f 4//2 8//2 7//2
f 8//3 6//3 5//3
f 6//4 2//4 1//4
f 7//5 5//5 1//5
f 4//6 2//6 6//6
o Icosphere
v 0.000000 1.151714 0.000000
v 0.723600 1.704499 0.525720
v -0.276385 1.704499 0.850640
v -0.894425 1.704499 0.000000
v -0.276385 1.704499 -0.850640
v 0.723600 1.704499 -0.525720
v 0.276385 2.598929 0.850640
v -0.723600 2.598929 0.525720
v -0.723600 2.598929 -0.525720
v 0.276385 2.598929 -0.850640
v 0.894425 2.598929 0.000000
v 0.000000 3.151714 0.000000
vn 0.1876 -0.7947 0.5774
vn 0.6071 -0.7947 -0.0000
vn -0.4911 -0.7947 0.3568
vn -0.4911 -0.7947 -0.3568
vn 0.1876 -0.7947 -0.5774
vn 0.9822 -0.1876 -0.0000
vn 0.3035 -0.1876 0.9342
vn -0.7946 -0.1876 0.5774
vn -0.7946 -0.1876 -0.5774
vn 0.3035 -0.1876 -0.9342
vn 0.7946 0.1876 0.5774
vn -0.3035 0.1876 0.9342
vn -0.9822 0.1876 -0.0000
vn -0.3035 0.1876 -0.9342
vn 0.7946 0.1876 -0.5774
vn 0.4911 0.7947 0.3568
vn -0.1876 0.7947 0.5774
vn -0.6071 0.7947 -0.0000
vn -0.1876 0.7947 -0.5774
vn 0.4911 0.7947 -0.3568
s 0
f 9//7 10//7 11//7
f 10//8 9//8 14//8
f 9//9 11//9 12//9
f 9//10 12//10 13//10
f 9//11 13//11 14//11
f 10//12 14//12 19//12
f 11//13 10//13 15//13
f 12//14 11//14 16//14
f 13//15 12//15 17//15
f 14//16 13//16 18//16
f 10//17 19//17 15//17
f 11//18 15//18 16//18
f 12//19 16//19 17//19
f 13//20 17//20 18//20
f 14//21 18//21 19//21
f 15//22 19//22 20//22
f 16//23 15//23 20//23
f 17//24 16//24 20//24
f 18//25 17//25 20//25
f 19//26 18//26 20//26
o Cone
v 2.806776 -0.686786 -1.203428
v 3.951304 -0.686786 -0.371880
v 3.514133 -0.686786 0.973594
v 2.099419 -0.686786 0.973594
v 1.662248 -0.686786 -0.371880
v 2.806776 0.686786 0.000000
vn 0.4795 0.5783 -0.6600
vn 0.7759 0.5783 0.2521
vn -0.0000 0.5783 0.8158
vn -0.0000 -1.0000 -0.0000
vn -0.7759 0.5783 0.2521
vn -0.4795 0.5783 -0.6600
s 0
f 21//27 26//27 22//27
f 22//28 26//28 23//28
f 23//29 26//29 24//29
f 22//30 24//30 25//30
f 24//31 26//31 25//31
f 25//32 26//32 21//32
f 25//30 21//30 22//30
f 22//30 23//30 24//30
o Cylinder
v -2.777166 -0.914340 -0.763460
v -2.777166 0.914340 -0.763460
v -2.395437 -0.914340 -0.661176
v -2.395437 0.914340 -0.661176
v -2.115991 -0.914340 -0.381730
v -2.115991 0.914340 -0.381730
v -2.013707 -0.914340 0.000000
v -2.013707 0.914340 0.000000
v -2.115991 -0.914340 0.381730
v -2.115991 0.914340 0.381730
v -2.395437 -0.914340 0.661176
v -2.395437 0.914340 0.661176
v -2.777166 -0.914340 0.763460
v -2.777166 0.914340 0.763460
v -3.158896 -0.914340 0.661176
v -3.158896 0.914340 0.661176
v -3.438342 -0.914340 0.381730
v -3.438342 0.914340 0.381730
v -3.540626 -0.914340 0.000000
v -3.540626 0.914340 0.000000
v -3.438342 -0.914340 -0.381730
v -3.438342 0.914340 -0.381730
v -3.158896 -0.914340 -0.661176
v -3.158896 0.914340 -0.661176
vn 0.2588 -0.0000 -0.9659
vn 0.7071 -0.0000 -0.7071
vn 0.9659 -0.0000 -0.2588
vn 0.9659 -0.0000 0.2588
vn 0.7071 -0.0000 0.7071
vn 0.2588 -0.0000 0.9659
vn -0.2588 -0.0000 0.9659
vn -0.7071 -0.0000 0.7071
vn -0.9659 -0.0000 0.2588
vn -0.9659 -0.0000 -0.2588
vn -0.0000 1.0000 -0.0000
vn -0.7071 -0.0000 -0.7071
vn -0.2588 -0.0000 -0.9659
vn -0.0000 -1.0000 -0.0000
s 0
f 28//33 29//33 27//33
f 30//34 31//34 29//34
f 32//35 33//35 31//35
f 34//36 35//36 33//36
f 36//37 37//37 35//37
f 38//38 39//38 37//38
f 40//39 41//39 39//39
f 42//40 43//40 41//40
f 44//41 45//41 43//41
f 46//42 47//42 45//42
f 48//43 40//43 32//43
f 48//44 49//44 47//44
f 50//45 27//45 49//45
f 33//46 41//46 49//46
f 28//33 30//33 29//33
f 30//34 32//34 31//34
f 32//35 34//35 33//35
f 34//36 36//36 35//36
f 36//37 38//37 37//37
f 38//38 40//38 39//38
f 40//39 42//39 41//39
f 42//40 44//40 43//40
f 44//41 46//41 45//41
f 46//42 48//42 47//42
f 32//43 30//43 28//43
f 28//43 50//43 48//43
f 48//43 46//43 44//43
f 44//43 42//43 40//43
f 40//43 38//43 36//43
f 36//43 34//43 32//43
f 32//43 28//43 48//43
f 48//43 44//43 40//43
f 40//43 36//43 32//43
f 48//44 50//44 49//44
f 50//45 28//45 27//45
f 49//46 27//46 29//46
f 29//46 31//46 33//46
f 33//46 35//46 37//46
f 37//46 39//46 41//46
f 41//46 43//46 45//46
f 45//46 47//46 49//46
f 49//46 29//46 33//46
f 33//46 37//46 41//46
f 41//46 45//46 49//46
o Torus
v 1.440000 0.000000 2.710000
v 1.220000 0.381051 2.710000
v 0.780000 0.381051 2.710000
v 0.560000 0.000000 2.710000
v 0.780000 -0.381051 2.710000
v 1.220000 -0.381051 2.710000
v 0.897825 0.000000 1.584163
v 0.760657 0.381051 1.756166
v 0.486322 0.381051 2.100171
v 0.349154 0.000000 2.272174
v 0.486322 -0.381051 2.100172
v 0.760657 -0.381051 1.756166
v -0.320430 0.000000 1.306104
v -0.271476 0.381051 1.520588
v -0.173566 0.381051 1.949556
v -0.124612 0.000000 2.164040
v -0.173566 -0.381051 1.949556
v -0.271476 -0.381051 1.520588
v -1.297395 0.000000 2.085207
v -1.099182 0.381051 2.180662
v -0.702756 0.381051 2.371571
v -0.504543 0.000000 2.467025
v -0.702756 -0.381051 2.371571
v -1.099182 -0.381051 2.180662
v -1.297395 0.000000 3.334792
v -1.099182 0.381051 3.239338
v -0.702756 0.381051 3.048429
v -0.504543 0.000000 2.952975
v -0.702756 -0.381051 3.048429
v -1.099182 -0.381051 3.239338
v -0.320430 0.000000 4.113896
v -0.271476 0.381051 3.899412
v -0.173566 0.381051 3.470444
v -0.124612 0.000000 3.255960
v -0.173566 -0.381051 3.470444
v -0.271476 -0.381051 3.899412
v 0.897825 0.000000 3.835838
v 0.760657 0.381051 3.663835
v 0.486322 0.381051 3.319829
v 0.349154 0.000000 3.147826
v 0.486322 -0.381051 3.319829
v 0.760657 -0.381051 3.663835
vn 0.7993 0.4615 -0.3849
vn -0.0000 1.0000 -0.0000
vn -0.7993 0.4615 0.3849
vn -0.7993 -0.4615 0.3849
vn -0.0000 -1.0000 -0.0000
vn 0.7993 -0.4615 -0.3849
vn 0.1974 0.4615 -0.8649
vn -0.1974 0.4615 0.8649
vn -0.1974 -0.4615 0.8649
vn 0.1974 -0.4615 -0.8649
vn -0.5531 0.4615 -0.6936
vn 0.5531 0.4615 0.6936
vn 0.5531 -0.4615 0.6936
vn -0.5531 -0.4615 -0.6936
vn -0.8872 0.4615 -0.0000
vn 0.8872 0.4615 -0.0000
vn 0.8872 -0.4615 -0.0000
vn -0.8872 -0.4615 -0.0000
vn -0.5531 0.4615 0.6936
vn 0.5531 0.4615 -0.6936
vn 0.5531 -0.4615 -0.6936
vn -0.5531 -0.4615 0.6936
vn 0.1974 0.4615 0.8649
vn -0.1974 0.4615 -0.8649
vn -0.1974 -0.4615 -0.8649
vn 0.1974 -0.4615 0.8649
vn 0.7993 0.4615 0.3849
vn -0.7993 0.4615 -0.3849
vn -0.7993 -0.4615 -0.3849
vn 0.7993 -0.4615 0.3849
s 0
f 57//47 52//47 51//47
f 52//48 59//48 53//48
f 53//49 60//49 54//49
f 60//50 55//50 54//50
f 61//51 56//51 55//51
f 62//52 51//52 56//52
f 63//53 58//53 57//53
f 64//48 59//48 58//48
f 59//54 66//54 60//54
f 66//55 61//55 60//55
f 67//51 62//51 61//51
f 62//56 63//56 57//56
f 69//57 64//57 63//57
f 70//48 65//48 64//48
f 71//58 66//58 65//58
f 72//59 67//59 66//59
f 73//51 68//51 67//51
f 74//60 63//60 68//60
f 75//61 70//61 69//61
f 76//48 71//48 70//48
f 77//62 72//62 71//62
f 78//63 73//63 72//63
f 73//51 80//51 74//51
f 80//64 69//64 74//64
f 81//65 76//65 75//65
f 82//48 77//48 76//48
f 83//66 78//66 77//66
f 84//67 79//67 78//67
f 85//51 80//51 79//51
f 80//68 81//68 75//68
f 87//69 82//69 81//69
f 82//48 89//48 83//48
f 89//70 84//70 83//70
f 90//71 85//71 84//71
f 91//51 86//51 85//51
f 92//72 81//72 86//72
f 87//73 52//73 88//73
f 52//48 89//48 88//48
f 53//74 90//74 89//74
f 54//75 91//75 90//75
f 55//51 92//51 91//51
f 92//76 51//76 87//76
f 57//47 58//47 52//47
f 52//48 58//48 59//48
f 53//49 59//49 60//49
f 60//50 61//50 55//50
f 61//51 62//51 56//51
f 62//52 57//52 51//52
f 63//53 64//53 58//53
f 64//48 65//48 59//48
f 59//54 65//54 66//54
f 66//55 67//55 61//55
f 67//51 68//51 62//51
f 62//56 68//56 63//56
f 69//57 70//57 64//57
f 70//48 71//48 65//48
f 71//58 72//58 66//58
f 72//59 73//59 67//59
f 73//51 74//51 68//51
f 74//60 69//60 63//60
f 75//61 76//61 70//61
f 76//48 77//48 71//48
f 77//62 78//62 72//62
f 78//63 79//63 73//63
f 73//51 79//51 80//51
f 80//64 75//64 69//64
f 81//65 82//65 76//65
f 82//48 83//48 77//48
f 83//66 84//66 78//66
f 84//67 85//67 79//67
f 85//51 86//51 80//51
f 80//68 86//68 81//68
f 87//69 88//69 82//69
f 82//48 88//48 89//48
f 89//70 90//70 84//70
f 90//71 91//71 85//71
f 91//51 92//51 86//51
f 92//72 87//72 81//72
f 87//73 51//73 52//73
f 52//48 53//48 89//48
f 53//74 54//74 90//74
f 54//75 55//75 91//75
f 55//51 56//51 92//51
f 92//76 56//76 51//76
o Diamond
v 0.000000 0.350000 -2.882110
v 0.000000 -0.800000 -2.882110
v 0.600000 0.350000 -2.882110
v 1.000000 0.000000 -2.882110
v 0.374094 0.350000 -2.413011
v 0.623490 0.000000 -2.100278
v -0.133513 0.350000 -2.297153
v -0.222521 0.000000 -1.907182
v -0.540581 0.350000 -2.621779
v -0.900969 0.000000 -2.448226
v -0.540581 0.350000 -3.142440
v -0.900969 0.000000 -3.315993
v -0.133513 0.350000 -3.467066
v -0.222521 0.000000 -3.857038
v 0.374094 0.350000 -3.351209
v 0.623489 0.000000 -3.663941
vn 0.5982 -0.7478 -0.2881
vn 0.5982 -0.7478 0.2881
vn 0.1477 -0.7478 0.6473
vn -0.4140 -0.7478 0.5191
vn -0.6640 -0.7478 -0.0000
vn -0.4140 -0.7478 -0.5191
vn 0.1477 -0.7478 -0.6473
vn 0.6277 0.7174 -0.3023
vn 0.6277 0.7174 0.3023
vn 0.1550 0.7174 0.6792
vn -0.4344 0.7174 0.5447
vn -0.6967 0.7174 -0.0000
vn -0.4344 0.7174 -0.5447
vn 0.1550 0.7174 -0.6792
vn -0.0000 1.0000 -0.0000
s 0
f 96//77 94//77 108//77
f 94//78 96//78 98//78
f 94//79 98//79 100//79
f 94//80 100//80 102//80
f 94//81 102//81 104//81
f 94//82 104//82 106//82
f 94//83 106//83 108//83
f 96//84 107//84 95//84
f 95//85 98//85 96//85
f 97//86 100//86 98//86
f 99//87 102//87 100//87
f 101//88 104//88 102//88
f 103//89 106//89 104//89
f 105//90 108//90 106//90
f 93//91 95//91 107//91
f 95//91 93//91 97//91
f 97//91 93//91 99//91
f 99//91 93//91 101//91
f 101//91 93//91 103//91
f 103//91 93//91 105//91
f 105//91 93//91 107//91
f 96//84 108//84 107//84
f 95//85 97//85 98//85
f 97//86 99//86 100//86
f 99//87 101//87 102//87
f 101//88 103//88 104//88
f 103//89 105//89 106//89
f 105//90 107//90 108//90
