# Blender 4.0.1
# www.blender.org
o Cube
v -1.000000 -1.000000 1.000000
v -1.000000 1.000000 1.000000
v -1.000000 -1.000000 -1.000000
v -1.000000 1.000000 -1.000000
v 1.000000 -1.000000 1.000000
v 1.000000 1.000000 1.000000
v 1.000000 -1.000000 -1.000000
v 1.000000 1.000000 -1.000000
vn -1.0000 -0.0000 -0.0000
vn -0.0000 -0.0000 -1.0000
vn 1.0000 -0.0000 -0.0000
vn -0.0000 -0.0000 1.0000
vn -0.0000 -1.0000 -0.0000
vn -0.0000 1.0000 -0.0000
vt 0.625000 0.000000
vt 0.375000 0.250000
vt 0.375000 0.000000
vt 0.625000 0.250000
vt 0.375000 0.500000
vt 0.625000 0.500000
vt 0.375000 0.750000
vt 0.625000 0.750000
vt 0.375000 1.000000
vt 0.125000 0.750000
vt 0.125000 0.500000
vt 0.875000 0.500000
vt 0.625000 1.000000
vt 0.875000 0.750000
s 0
f 2/1/1 3/2/1 1/3/1
f 4/4/2 7/5/2 3/2/2
f 8/6/3 5/7/3 7/5/3
f 6/8/4 1/9/4 5/7/4
f 7/5/5 1/10/5 3/11/5
f 4/12/6 6/8/6 8/6/6
f 2/1/1 4/4/1 3/2/1
f 4/4/2 8/6/2 7/5/2
f 8/6/3 6/8/3 5/7/3
f 6/8/4 2/13/4 1/9/4
f 7/5/5 5/7/5 1/10/5
f 4/12/6 2/14/6 6/8/6
o Icosphere
v 0.000000 1.151714 0.000000
v 0.723600 1.704499 0.525720
v -0.276385 1.704499 0.850640
v -0.894425 1.704499 0.000000
v -0.276385 1.704499 -0.850640
v 0.723600 1.704499 -0.525720
v 0.276385 2.598929 0.850640
v -0.723600 2.598929 0.525720
v -0.723600 2.598929 -0.525720
v 0.276385 2.598929 -0.850640
v 0.894425 2.598929 0.000000
v 0.000000 3.151714 0.000000
vn 0.1876 -0.7947 0.5774
vn 0.6071 -0.7947 -0.0000
vn -0.4911 -0.7947 0.3568
vn -0.4911 -0.7947 -0.3568
vn 0.1876 -0.7947 -0.5774
vn 0.9822 -0.1876 -0.0000
vn 0.3035 -0.1876 0.9342
vn -0.7946 -0.1876 0.5774
vn -0.7946 -0.1876 -0.5774
vn 0.3035 -0.1876 -0.9342
vn 0.7946 0.1876 0.5774
vn -0.3035 0.1876 0.9342
vn -0.9822 0.1876 -0.0000
vn -0.3035 0.1876 -0.9342
vn 0.7946 0.1876 -0.5774
vn 0.4911 0.7947 0.3568
vn -0.1876 0.7947 0.5774
vn -0.6071 0.7947 -0.0000
vn -0.1876 0.7947 -0.5774
vn 0.4911 0.7947 -0.3568
vt 0.181819 0.000000
vt 0.272728 0.157461
vt 0.090910 0.157461
vt 0.363637 0.000000
vt 0.454546 0.157461
vt 0.909091 0.000000
vt 1.000000 0.157461
vt 0.818182 0.157461
vt 0.727273 0.000000
vt 0.636364 0.157461
vt 0.545455 0.000000
vt 0.363637 0.314921
vt 0.181819 0.314921
vt 0.909091 0.314921
vt 0.727273 0.314921
vt 0.545455 0.314921
vt 0.000000 0.314921
vt 0.272728 0.472382
vt 0.090910 0.472382
vt 0.818182 0.472382
vt 0.636364 0.472382
vt 0.454546 0.472382
s 0
f 9/15/7 10/16/7 11/17/7
f 10/16/8 9/18/8 14/19/8
f 9/20/9 11/21/9 12/22/9
f 9/23/10 12/22/10 13/24/10
f 9/25/11 13/24/11 14/19/11
f 10/16/12 14/19/12 19/26/12
f 11/17/13 10/16/13 15/27/13
f 12/22/14 11/21/14 16/28/14
f 13/24/15 12/22/15 17/29/15
f 14/19/16 13/24/16 18/30/16
f 10/16/17 19/26/17 15/27/17
f 11/17/18 15/27/18 16/31/18
f 12/22/19 16/28/19 17/29/19
f 13/24/20 17/29/20 18/30/20
f 14/19/21 18/30/21 19/26/21
f 15/27/22 19/26/22 20/32/22
f 16/31/23 15/27/23 20/33/23
f 17/29/24 16/28/24 20/34/24
f 18/30/25 17/29/25 20/35/25
f 19/26/26 18/30/26 20/36/26
o Cone
v 2.475873 -0.686786 -1.203428
v 3.620401 -0.686786 -0.371880
v 3.183230 -0.686786 0.973594
v 1.768516 -0.686786 0.973594
v 1.331345 -0.686786 -0.371880
v 2.475873 0.686786 0.000000
vn 0.4795 0.5783 -0.6600
vn 0.7759 0.5783 0.2521
vn -0.0000 0.5783 0.8158
vn -0.0000 -1.0000 -0.0000
vn -0.7759 0.5783 0.2521
vn -0.4795 0.5783 -0.6600
vt 0.250000 0.490000
vt 0.250000 0.250000
vt 0.478254 0.324164
vt 0.391068 0.055836
vt 0.108932 0.055836
vt 0.978254 0.324164
vt 0.608932 0.055836
vt 0.521746 0.324164
vt 0.021746 0.324164
vt 0.750000 0.490000
vt 0.891068 0.055836
s 0
f 21/37/27 26/38/27 22/39/27
f 22/39/28 26/38/28 23/40/28
f 23/40/29 26/38/29 24/41/29
f 22/42/30 24/43/30 25/44/30
f 24/41/31 26/38/31 25/45/31
f 25/45/32 26/38/32 21/37/32
f 25/44/30 21/46/30 22/42/30
f 22/42/30 23/47/30 24/43/30
o Cylinder
v -2.777166 -0.914340 -0.763460
v -2.777166 0.914340 -0.763460
v -2.395437 -0.914340 -0.661176
v -2.395437 0.914340 -0.661176
v -2.115991 -0.914340 -0.381730
v -2.115991 0.914340 -0.381730
v -2.013707 -0.914340 0.000000
v -2.013707 0.914340 0.000000
v -2.115991 -0.914340 0.381730
v -2.115991 0.914340 0.381730
v -2.395437 -0.914340 0.661176
v -2.395437 0.914340 0.661176
v -2.777166 -0.914340 0.763460
v -2.777166 0.914340 0.763460
v -3.158896 -0.914340 0.661176
v -3.158896 0.914340 0.661176
v -3.438342 -0.914340 0.381730
v -3.438342 0.914340 0.381730
v -3.540626 -0.914340 0.000000
v -3.540626 0.914340 0.000000
v -3.438342 -0.914340 -0.381730
v -3.438342 0.914340 -0.381730
v -3.158896 -0.914340 -0.661176
v -3.158896 0.914340 -0.661176
vn 0.2588 -0.0000 -0.9659
vn 0.7071 -0.0000 -0.7071
vn 0.9659 -0.0000 -0.2588
vn 0.9659 -0.0000 0.2588
vn 0.7071 -0.0000 0.7071
vn 0.2588 -0.0000 0.9659
vn -0.2588 -0.0000 0.9659
vn -0.7071 -0.0000 0.7071
vn -0.9659 -0.0000 0.2588
vn -0.9659 -0.0000 -0.2588
vn -0.0000 1.0000 -0.0000
vn -0.7071 -0.0000 -0.7071
vn -0.2588 -0.0000 -0.9659
vn -0.0000 -1.0000 -0.0000
vt 1.000000 1.000000
vt 0.916667 0.500000
vt 1.000000 0.500000
vt 0.916667 1.000000
vt 0.833333 0.500000
vt 0.833333 1.000000
vt 0.750000 0.500000
vt 0.750000 1.000000
vt 0.666667 0.500000
vt 0.666667 1.000000
vt 0.583333 0.500000
vt 0.583333 1.000000
vt 0.500000 0.500000
vt 0.500000 1.000000
vt 0.416667 0.500000
vt 0.416667 1.000000
vt 0.333333 0.500000
vt 0.333333 1.000000
vt 0.250000 0.500000
vt 0.250000 1.000000
vt 0.166667 0.500000
vt 0.042154 0.370000
vt 0.250000 0.010000
vt 0.457846 0.370000
vt 0.166667 1.000000
vt 0.083333 0.500000
vt 0.083333 1.000000
vt 0.000000 0.500000
vt 0.990000 0.250000
vt 0.630000 0.042154
vt 0.630000 0.457846
vt 0.370000 0.457846
vt 0.250000 0.490000
vt 0.130000 0.457846
vt 0.010000 0.250000
vt 0.042154 0.130000
vt 0.130000 0.042154
vt 0.370000 0.042154
vt 0.457846 0.130000
vt 0.490000 0.250000
vt 0.000000 1.000000
vt 0.750000 0.490000
vt 0.870000 0.457846
vt 0.957846 0.370000
vt 0.957846 0.130000
vt 0.870000 0.042154
vt 0.750000 0.010000
vt 0.542154 0.130000
vt 0.510000 0.250000
vt 0.542154 0.370000
s 0
f 28/48/33 29/49/33 27/50/33
f 30/51/34 31/52/34 29/49/34
f 32/53/35 33/54/35 31/52/35
f 34/55/36 35/56/36 33/54/36
f 36/57/37 37/58/37 35/56/37
f 38/59/38 39/60/38 37/58/38
f 40/61/39 41/62/39 39/60/39
f 42/63/40 43/64/40 41/62/40
f 44/65/41 45/66/41 43/64/41
f 46/67/42 47/68/42 45/66/42
f 48/69/43 40/70/43 32/71/43
f 48/72/44 49/73/44 47/68/44
f 50/74/45 27/75/45 49/73/45
f 33/76/46 41/77/46 49/78/46
f 28/48/33 30/51/33 29/49/33
f 30/51/34 32/53/34 31/52/34
f 32/53/35 34/55/35 33/54/35
f 34/55/36 36/57/36 35/56/36
f 36/57/37 38/59/37 37/58/37
f 38/59/38 40/61/38 39/60/38
f 40/61/39 42/63/39 41/62/39
f 42/63/40 44/65/40 43/64/40
f 44/65/41 46/67/41 45/66/41
f 46/67/42 48/72/42 47/68/42
f 32/71/43 30/79/43 28/80/43
f 28/80/43 50/81/43 48/69/43
f 48/69/43 46/82/43 44/83/43
f 44/83/43 42/84/43 40/70/43
f 40/70/43 38/85/43 36/86/43
f 36/86/43 34/87/43 32/71/43
f 32/71/43 28/80/43 48/69/43
f 48/69/43 44/83/43 40/70/43
f 40/70/43 36/86/43 32/71/43
f 48/72/44 50/74/44 49/73/44
f 50/74/45 28/88/45 27/75/45
f 49/78/46 27/89/46 29/90/46
f 29/90/46 31/91/46 33/76/46
f 33/76/46 35/92/46 37/93/46
f 37/93/46 39/94/46 41/77/46
f 41/77/46 43/95/46 45/96/46
f 45/96/46 47/97/46 49/78/46
f 49/78/46 29/90/46 33/76/46
f 33/76/46 37/93/46 41/77/46
f 41/77/46 45/96/46 49/78/46
o Torus.001
v 1.250000 0.000000 2.590000
v 1.077254 0.237764 2.590000
v 0.797746 0.146946 2.590000
v 0.797746 -0.146946 2.590000
v 1.077254 -0.237764 2.590000
v 0.779362 0.000000 1.612710
v 0.671657 0.237764 1.747769
v 0.497386 0.146946 1.966297
v 0.497386 -0.146946 1.966297
v 0.671657 -0.237764 1.747769
v -0.278151 0.000000 1.371340
v -0.239712 0.237764 1.539755
v -0.177515 0.146946 1.812255
v -0.177515 -0.146946 1.812255
v -0.239712 -0.237764 1.539755
v -1.126211 0.000000 2.047645
v -0.970573 0.237764 2.122597
v -0.718744 0.146946 2.243871
v -0.718744 -0.146946 2.243871
v -0.970573 -0.237764 2.122597
v -1.126211 0.000000 3.132354
v -0.970573 0.237764 3.057403
v -0.718744 0.146946 2.936129
v -0.718744 -0.146946 2.936129
v -0.970573 -0.237764 3.057403
v -0.278151 0.000000 3.808660
v -0.239712 0.237764 3.640245
v -0.177515 0.146946 3.367744
v -0.177515 -0.146946 3.367744
v -0.239712 -0.237764 3.640245
v 0.779362 0.000000 3.567290
v 0.671657 0.237764 3.432232
v 0.497386 0.146946 3.213703
v 0.497386 -0.146946 3.213703
v 0.671657 -0.237764 3.432232
vn 0.7538 0.5477 -0.3630
vn -0.3057 0.9407 0.1472
vn -0.9010 -0.0000 0.4339
vn -0.3057 -0.9407 0.1472
vn 0.7538 -0.5477 -0.3630
vn 0.1862 0.5477 -0.8157
vn -0.0755 0.9407 0.3307
vn -0.2225 -0.0000 0.9749
vn -0.0755 -0.9407 0.3307
vn 0.1862 -0.5477 -0.8157
vn -0.5217 0.5477 -0.6541
vn 0.2115 0.9407 0.2652
vn 0.6235 -0.0000 0.7818
vn 0.2115 -0.9407 0.2652
vn -0.5217 -0.5477 -0.6541
vn -0.8367 0.5477 -0.0000
vn 0.3392 0.9407 -0.0000
vn 1.0000 -0.0000 -0.0000
vn 0.3392 -0.9407 -0.0000
vn -0.8367 -0.5477 -0.0000
vn -0.5217 0.5477 0.6541
vn 0.2115 0.9407 -0.2652
vn 0.6235 -0.0000 -0.7818
vn 0.2115 -0.9407 -0.2652
vn -0.5217 -0.5477 0.6541
vn 0.1862 0.5477 0.8157
vn -0.0755 0.9407 -0.3307
vn -0.2225 -0.0000 -0.9749
vn -0.0755 -0.9407 -0.3307
vn 0.1862 -0.5477 0.8157
vn 0.7538 0.5477 0.3630
vn -0.3057 0.9407 -0.1472
vn -0.9010 -0.0000 -0.4339
vn -0.3057 -0.9407 -0.1472
vn 0.7538 -0.5477 0.3630
vt 0.714286 0.600000
vt 0.571429 0.800000
vt 0.571429 0.600000
vt 0.714286 0.800000
vt 0.571429 1.000000
vt 0.714286 0.000000
vt 0.571429 0.200000
vt 0.571429 0.000000
vt 0.714286 0.200000
vt 0.571429 0.400000
vt 0.857143 0.600000
vt 0.857143 1.000000
vt 0.714286 1.000000
vt 0.857143 0.000000
vt 0.857143 0.400000
vt 0.714286 0.400000
vt 1.000000 0.600000
vt 0.857143 0.800000
vt 1.000000 0.800000
vt 1.000000 0.000000
vt 0.857143 0.200000
vt 1.000000 0.400000
vt 0.142857 0.600000
vt -0.000000 0.800000
vt -0.000000 0.600000
vt 0.142857 1.000000
vt -0.000000 1.000000
vt 0.142857 0.000000
vt -0.000000 0.200000
vt -0.000000 0.000000
vt 0.142857 0.400000
vt -0.000000 0.400000
vt 0.285714 0.600000
vt 0.142857 0.800000
vt 0.285714 1.000000
vt 0.285714 0.000000
vt 0.142857 0.200000
vt 0.285714 0.200000
vt 0.285714 0.400000
vt 0.428571 0.600000
vt 0.285714 0.800000
vt 0.428571 0.800000
vt 0.428571 0.000000
vt 0.428571 0.200000
vt 0.428571 0.400000
vt 0.428571 1.000000
vt 1.000000 1.000000
vt 1.000000 0.200000
s 0
f 56/98/47 52/99/47 51/100/47
f 57/101/48 53/102/48 52/99/48
f 58/103/49 54/104/49 53/105/49
f 59/106/50 55/107/50 54/104/50
f 55/107/51 56/98/51 51/100/51
f 61/108/52 57/101/52 56/98/52
f 57/101/53 63/109/53 58/110/53
f 63/111/54 59/106/54 58/103/54
f 59/106/55 65/112/55 60/113/55
f 65/112/56 56/98/56 60/113/56
f 66/114/57 62/115/57 61/108/57
f 67/116/58 63/109/58 62/115/58
f 68/117/59 64/118/59 63/111/59
f 64/118/60 70/119/60 65/112/60
f 70/119/61 61/108/61 65/112/61
f 71/120/62 67/121/62 66/122/62
f 67/121/63 73/123/63 68/124/63
f 73/125/64 69/126/64 68/127/64
f 69/126/65 75/128/65 70/129/65
f 75/128/66 66/122/66 70/129/66
f 76/130/67 72/131/67 71/120/67
f 72/131/68 78/132/68 73/123/68
f 78/133/69 74/134/69 73/125/69
f 79/135/70 75/128/70 74/134/70
f 80/136/71 71/120/71 75/128/71
f 81/137/72 77/138/72 76/130/72
f 82/139/73 78/132/73 77/138/73
f 83/140/74 79/135/74 78/133/74
f 84/141/75 80/136/75 79/135/75
f 85/142/76 76/130/76 80/136/76
f 51/100/77 82/139/77 81/137/77
f 52/99/78 83/143/78 82/139/78
f 53/105/79 84/141/79 83/140/79
f 54/104/80 85/142/80 84/141/80
f 55/107/81 81/137/81 85/142/81
f 56/98/47 57/101/47 52/99/47
f 57/101/48 58/110/48 53/102/48
f 58/103/49 59/106/49 54/104/49
f 59/106/50 60/113/50 55/107/50
f 55/107/51 60/113/51 56/98/51
f 61/108/52 62/115/52 57/101/52
f 57/101/53 62/115/53 63/109/53
f 63/111/54 64/118/54 59/106/54
f 59/106/55 64/118/55 65/112/55
f 65/112/56 61/108/56 56/98/56
f 66/114/57 67/116/57 62/115/57
f 67/116/58 68/144/58 63/109/58
f 68/117/59 69/145/59 64/118/59
f 64/118/60 69/145/60 70/119/60
f 70/119/61 66/114/61 61/108/61
f 71/120/62 72/131/62 67/121/62
f 67/121/63 72/131/63 73/123/63
f 73/125/64 74/134/64 69/126/64
f 69/126/65 74/134/65 75/128/65
f 75/128/66 71/120/66 66/122/66
f 76/130/67 77/138/67 72/131/67
f 72/131/68 77/138/68 78/132/68
f 78/133/69 79/135/69 74/134/69
f 79/135/70 80/136/70 75/128/70
f 80/136/71 76/130/71 71/120/71
f 81/137/72 82/139/72 77/138/72
f 82/139/73 83/143/73 78/132/73
f 83/140/74 84/141/74 79/135/74
f 84/141/75 85/142/75 80/136/75
f 85/142/76 81/137/76 76/130/76
f 51/100/77 52/99/77 82/139/77
f 52/99/78 53/102/78 83/143/78
f 53/105/79 54/104/79 84/141/79
f 54/104/80 55/107/80 85/142/80
f 55/107/81 51/100/81 81/137/81
o Text
v -1.497772 -0.224641 -1.951997
v -1.189034 -0.269561 -1.924378
v -1.023236 -0.068090 -1.924378
v -1.543196 -0.068090 -1.924378
v -1.222335 0.338335 -1.924378
v -0.876791 -0.036827 -1.924378
v -1.101194 -0.384261 -1.924378
v -1.523799 -0.333607 -1.951997
v -1.075131 0.028991 -1.924378
v -1.223089 0.194838 -1.924378
v -1.358299 0.028991 -1.924378
v -0.735283 0.287326 -1.924378
v -0.521375 0.338335 -1.924378
v -0.156087 -0.059863 -1.924378
v -0.531248 -0.430088 -1.924378
v -0.751738 -0.387306 -1.924378
v -0.751738 -0.242507 -1.924378
v -0.555930 -0.291870 -1.924378
v -0.305822 -0.046699 -1.924378
v -0.531248 0.203408 -1.924378
v -0.735283 0.131009 -1.924378
v 0.018330 0.323526 -1.924378
v 0.164775 0.323526 -1.924378
v 0.164775 -0.415279 -1.924378
v 0.018330 -0.415279 -1.924378
v 0.003521 0.547306 -1.924378
v 0.090730 0.634515 -1.924378
v 0.177938 0.547306 -1.924378
v 0.090730 0.460098 -1.924378
v 0.395137 0.706915 -1.924378
v 0.546518 0.706915 -1.924378
v 0.546518 -0.161880 -1.924378
v 1.306714 0.706915 -1.924378
v 1.435058 0.706915 -1.924378
v 1.435058 -0.415279 -1.924378
v 1.283677 -0.415279 -1.924378
v 1.283677 0.448580 -1.924378
v 0.533355 -0.415279 -1.924378
v 0.395137 -0.415279 -1.924378
v -1.497772 -0.224641 -2.161933
v -1.189034 -0.269561 -2.189552
v -1.023236 -0.068090 -2.189552
v -1.543196 -0.068090 -2.189552
v -1.222335 0.338335 -2.189552
v -0.876791 -0.036827 -2.189552
v -1.101194 -0.384261 -2.189552
v -1.523799 -0.333607 -2.161933
v -1.075131 0.028991 -2.189552
v -1.223089 0.194838 -2.189552
v -1.358299 0.028991 -2.189552
v -0.735283 0.287326 -2.189552
v -0.521375 0.338335 -2.189552
v -0.156087 -0.059863 -2.189552
v -0.531248 -0.430088 -2.189552
v -0.751738 -0.387306 -2.189552
v -0.751738 -0.242507 -2.189552
v -0.555930 -0.291870 -2.189552
v -0.305822 -0.046699 -2.189552
v -0.531248 0.203408 -2.189552
v -0.735283 0.131009 -2.189552
v 0.018330 0.323526 -2.189552
v 0.164775 0.323526 -2.189552
v 0.164775 -0.415279 -2.189552
v 0.018330 -0.415279 -2.189552
v 0.003521 0.547306 -2.189552
v 0.090730 0.634515 -2.189552
v 0.177938 0.547306 -2.189552
v 0.090730 0.460098 -2.189552
v 0.395137 0.706915 -2.189552
v 0.546518 0.706915 -2.189552
v 0.546518 -0.161880 -2.189552
v 1.306713 0.706915 -2.189552
v 1.435058 0.706915 -2.189552
v 1.435058 -0.415279 -2.189552
v 1.283677 -0.415279 -2.189552
v 1.283677 0.448580 -2.189552
v 0.533355 -0.415279 -2.189552
v 0.395137 -0.415279 -2.189552
vn -0.0000 -0.0000 1.0000
vn -0.0861 0.0206 0.9961
vn -0.0717 -0.0549 0.9959
vn -0.0000 -0.0000 -1.0000
vn -0.0861 0.0206 -0.9961
vn -0.0717 -0.0549 -0.9959
vn 0.2445 0.9697 -0.0000
vn -0.0000 -1.0000 -0.0000
vn -0.7000 0.7141 -0.0000
vn -0.7071 0.7071 -0.0000
vn 0.7751 -0.6319 -0.0000
vn 0.7071 0.7071 -0.0000
vn -0.0000 1.0000 -0.0000
vn -0.2320 0.9727 -0.0000
vn 0.7071 -0.7071 -0.0000
vn -1.0000 -0.0000 -0.0000
vn 0.7369 0.6760 -0.0000
vn -0.7428 -0.6695 -0.0000
vn 0.7024 -0.7118 -0.0000
vn 1.0000 -0.0000 -0.0000
vn -0.1905 -0.9817 -0.0000
vn 0.1440 0.9896 -0.0000
vn -0.7526 0.6585 -0.0000
vn -0.7722 0.6354 -0.0000
vn -0.1190 -0.9929 -0.0000
vn -0.7849 0.6196 -0.0000
vn -0.7071 -0.7071 -0.0000
vn 0.7355 0.6775 -0.0000
vn -0.9726 0.2323 -0.0000
vn 0.3344 -0.9424 -0.0000
vn 0.8400 -0.5426 -0.0000
vn 0.7550 -0.6558 -0.0000
vn -0.7462 -0.6657 -0.0000
vt 0.500000 0.000000
vt 0.400000 0.000000
vt 0.900000 0.000000
vt 0.300000 0.000000
vt 0.800000 0.000000
vt 1.000000 0.000000
vt 0.600000 0.000000
vt 0.200000 0.000000
vt 0.100000 0.000000
vt 0.000000 0.000000
vt 0.700000 0.000000
vt 0.222222 0.000000
vt 0.111111 0.000000
vt 0.888889 0.000000
vt 0.777778 0.000000
vt 0.666667 0.000000
vt 0.333333 0.000000
vt 0.555556 0.000000
vt 0.444444 0.000000
vt 0.857143 0.000000
vt 0.714286 0.000000
vt 0.571429 0.000000
vt 0.285714 0.000000
vt 0.142857 0.000000
vt 0.428571 0.000000
s 0
f 91/146/82 90/147/82 95/148/82
f 95/148/82 90/147/82 89/149/82
f 91/146/82 95/148/82 94/150/82
f 96/151/82 95/148/82 89/149/82
f 91/146/82 94/150/82 96/151/82
f 91/146/82 96/151/82 89/149/82
f 92/152/82 91/146/82 88/153/82
f 88/153/82 91/146/82 89/149/82
f 92/152/82 88/153/82 87/154/82
f 87/154/83 86/155/83 93/156/83
f 92/152/84 87/154/84 93/156/84
f 99/157/82 98/158/82 105/159/82
f 105/159/82 98/158/82 97/155/82
f 105/159/82 97/155/82 106/151/82
f 99/157/82 105/159/82 104/160/82
f 99/157/82 104/160/82 103/161/82
f 100/162/82 99/157/82 103/161/82
f 103/161/82 102/163/82 101/164/82
f 100/162/82 103/161/82 101/164/82
f 113/165/82 112/166/82 111/167/82
f 114/151/82 113/165/82 111/167/82
f 109/168/82 108/169/82 107/155/82
f 109/168/82 107/155/82 110/170/82
f 120/163/82 119/164/82 118/162/82
f 120/163/82 118/162/82 122/160/82
f 122/160/82 118/162/82 117/157/82
f 117/157/82 116/158/82 115/155/82
f 117/157/82 115/155/82 124/151/82
f 120/163/82 122/160/82 121/161/82
f 123/159/82 122/160/82 117/157/82
f 123/159/82 117/157/82 124/151/82
f 130/146/85 134/148/85 129/147/85
f 134/148/85 128/149/85 129/147/85
f 130/146/85 133/150/85 134/148/85
f 135/151/85 128/149/85 134/148/85
f 130/146/85 135/151/85 133/150/85
f 130/146/85 128/149/85 135/151/85
f 131/152/85 127/153/85 130/146/85
f 127/153/85 128/149/85 130/146/85
f 131/152/85 126/154/85 127/153/85
f 126/154/86 132/156/86 125/155/86
f 131/152/87 132/156/87 126/154/87
f 138/157/85 144/159/85 137/158/85
f 144/159/85 136/155/85 137/158/85
f 144/159/85 145/151/85 136/155/85
f 138/157/85 143/160/85 144/159/85
f 138/157/85 142/161/85 143/160/85
f 139/162/85 142/161/85 138/157/85
f 142/161/85 140/164/85 141/163/85
f 139/162/85 140/164/85 142/161/85
f 152/165/85 150/167/85 151/166/85
f 153/151/85 150/167/85 152/165/85
f 148/168/85 146/155/85 147/169/85
f 148/168/85 149/170/85 146/155/85
f 159/163/85 157/162/85 158/164/85
f 159/163/85 161/160/85 157/162/85
f 161/160/85 156/157/85 157/162/85
f 156/157/85 154/155/85 155/158/85
f 156/157/85 163/151/85 154/155/85
f 159/163/85 160/161/85 161/160/85
f 162/159/85 156/157/85 161/160/85
f 162/159/85 163/151/85 156/157/85
f 103/161/88 141/163/88 102/163/88
f 110/170/89 148/168/89 109/168/89
f 104/160/90 142/161/90 103/161/90
f 112/166/91 150/167/91 111/167/91
f 96/151/92 134/148/92 95/148/92
f 113/165/93 151/166/93 112/166/93
f 119/164/94 157/162/94 118/162/94
f 98/158/95 136/155/95 97/155/95
f 124/151/89 162/159/89 123/159/89
f 114/151/96 152/165/96 113/165/96
f 115/155/97 163/151/97 124/151/97
f 99/157/98 137/158/98 98/158/98
f 105/159/99 143/160/99 104/160/99
f 116/158/94 154/155/94 115/155/94
f 100/162/100 138/157/100 99/157/100
f 117/157/101 155/158/101 116/158/101
f 101/164/102 139/162/102 100/162/102
f 122/160/97 160/161/97 121/161/97
f 87/154/103 125/155/103 86/155/103
f 118/162/104 156/157/104 117/157/104
f 102/163/97 140/164/97 101/164/97
f 88/153/105 126/154/105 87/154/105
f 107/155/97 149/170/97 110/170/97
f 89/149/89 127/153/89 88/153/89
f 120/163/101 158/164/101 119/164/101
f 92/152/106 132/156/106 131/152/106
f 90/147/107 128/149/107 89/149/107
f 121/161/89 159/163/89 120/163/89
f 97/155/97 145/151/97 106/151/97
f 111/167/108 153/151/108 114/151/108
f 91/146/109 129/147/109 90/147/109
f 86/155/110 132/156/110 93/156/110
f 106/151/111 144/159/111 105/159/111
f 92/152/112 130/146/112 91/146/112
f 123/159/113 161/160/113 122/160/113
f 108/169/94 146/155/94 107/155/94
f 95/148/114 133/150/114 94/150/114
f 109/168/101 147/169/101 108/169/101
f 94/150/94 135/151/94 96/151/94
f 103/161/88 142/161/88 141/163/88
f 110/170/89 149/170/89 148/168/89
f 104/160/90 143/160/90 142/161/90
f 112/166/91 151/166/91 150/167/91
f 96/151/92 135/151/92 134/148/92
f 113/165/93 152/165/93 151/166/93
f 119/164/94 158/164/94 157/162/94
f 98/158/95 137/158/95 136/155/95
f 124/151/89 163/151/89 162/159/89
f 114/151/96 153/151/96 152/165/96
f 115/155/97 154/155/97 163/151/97
f 99/157/98 138/157/98 137/158/98
f 105/159/99 144/159/99 143/160/99
f 116/158/94 155/158/94 154/155/94
f 100/162/100 139/162/100 138/157/100
f 117/157/101 156/157/101 155/158/101
f 101/164/102 140/164/102 139/162/102
f 122/160/97 161/160/97 160/161/97
f 87/154/103 126/154/103 125/155/103
f 118/162/104 157/162/104 156/157/104
f 102/163/97 141/163/97 140/164/97
f 88/153/105 127/153/105 126/154/105
f 107/155/97 146/155/97 149/170/97
f 89/149/89 128/149/89 127/153/89
f 120/163/101 159/163/101 158/164/101
f 92/152/106 93/156/106 132/156/106
f 90/147/107 129/147/107 128/149/107
f 121/161/89 160/161/89 159/163/89
f 97/155/97 136/155/97 145/151/97
f 111/167/108 150/167/108 153/151/108
f 91/146/109 130/146/109 129/147/109
f 86/155/110 125/155/110 132/156/110
f 106/151/111 145/151/111 144/159/111
f 92/152/112 131/152/112 130/146/112
f 123/159/113 162/159/113 161/160/113
f 108/169/94 147/169/94 146/155/94
f 95/148/114 134/148/114 133/150/114
f 109/168/101 148/168/101 147/169/101
f 94/150/94 133/150/94 135/151/94
