# Blender 3.6.5
# www.blender.org
o Icosphere
v -2.204134 -1.000000 0.000000
v -1.480534 -0.447215 0.525720
v -2.480519 -0.447215 0.850640
v -3.098559 -0.447215 0.000000
v -2.480519 -0.447215 -0.850640
v -1.480534 -0.447215 -0.525720
v -1.927749 0.447215 0.850640
v -2.927734 0.447215 0.525720
v -2.927734 0.447215 -0.525720
v -1.927749 0.447215 -0.850640
v -1.309709 0.447215 0.000000
v -2.204134 1.000000 0.000000
vn 0.1876 -0.7947 0.5774
vn 0.6071 -0.7947 -0.0000
vn -0.4911 -0.7947 0.3568
vn -0.4911 -0.7947 -0.3568
vn 0.1876 -0.7947 -0.5774
vn 0.9822 -0.1876 -0.0000
vn 0.3035 -0.1876 0.9342
vn -0.7946 -0.1876 0.5774
vn -0.7946 -0.1876 -0.5774
vn 0.3035 -0.1876 -0.9342
vn 0.7946 0.1876 0.5774
vn -0.3035 0.1876 0.9342
vn -0.9822 0.1876 -0.0000
vn -0.3035 0.1876 -0.9342
vn 0.7946 0.1876 -0.5774
vn 0.4911 0.7947 0.3568
vn -0.1876 0.7947 0.5774
vn -0.6071 0.7947 -0.0000
vn -0.1876 0.7947 -0.5774
vn 0.4911 0.7947 -0.3568
vt 0.181819 0.000000
vt 0.272728 0.157461
vt 0.090910 0.157461
vt 0.363637 0.000000
vt 0.454546 0.157461
vt 0.909091 0.000000
vt 1.000000 0.157461
vt 0.818182 0.157461
vt 0.727273 0.000000
vt 0.636364 0.157461
vt 0.545455 0.000000
vt 0.363637 0.314921
vt 0.181819 0.314921
vt 0.909091 0.314921
vt 0.727273 0.314921
vt 0.545455 0.314921
vt 0.000000 0.314921
vt 0.272728 0.472382
vt 0.090910 0.472382
vt 0.818182 0.472382
vt 0.636364 0.472382
vt 0.454546 0.472382
s 0
f 1/1/1 2/2/1 3/3/1
f 2/2/2 1/4/2 6/5/2
f 1/6/3 3/7/3 4/8/3
f 1/9/4 4/8/4 5/10/4
f 1/11/5 5/10/5 6/5/5
f 2/2/6 6/5/6 11/12/6
f 3/3/7 2/2/7 7/13/7
f 4/8/8 3/7/8 8/14/8
f 5/10/9 4/8/9 9/15/9
f 6/5/10 5/10/10 10/16/10
f 2/2/11 11/12/11 7/13/11
f 3/3/12 7/13/12 8/17/12
f 4/8/13 8/14/13 9/15/13
f 5/10/14 9/15/14 10/16/14
f 6/5/15 10/16/15 11/12/15
f 7/13/16 11/12/16 12/18/16
f 8/17/17 7/13/17 12/19/17
f 9/15/18 8/14/18 12/20/18
f 10/16/19 9/15/19 12/21/19
f 11/12/20 10/16/20 12/22/20
o Suzanne
v -0.484034 0.020155 0.576947
v 0.484034 0.020155 0.576947
v 0.103827 0.159850 0.640278
v -0.103827 0.159850 0.640278
v 0.393837 0.378491 0.790033
v 0.156250 0.437500 0.648438
v -0.156250 0.437500 0.648438
v -0.464863 0.413575 0.544369
v -0.393837 0.378491 0.790033
v 0.464863 0.413575 0.544369
v 0.633263 0.242030 0.566494
v -0.633263 0.242030 0.566494
v -0.320532 0.114372 0.808700
v 0.320532 0.114372 0.808700
v 0.000000 -0.859401 0.691666
v 0.000000 -0.187500 0.796875
v 0.000000 0.367889 0.758962
v 0.000000 0.739405 -0.758502
v 0.000000 -0.248586 -0.692479
v -0.258974 -0.315600 0.417902
v -0.380003 -0.961727 0.499138
v 0.750929 0.043677 0.516782
v 0.832894 0.398588 0.625095
v -0.238492 0.773072 0.711296
v 0.224125 0.132533 0.757452
v -0.096071 -0.811170 0.703592
v 0.000000 -0.195312 0.750000
v 0.000000 -0.140625 0.742188
v -0.750929 0.043677 0.516782
v -0.832894 0.398588 0.625095
v -0.224831 0.552520 0.798764
v 0.224831 0.552520 0.798764
v -0.123150 -0.178023 0.775416
v 0.000000 -0.302549 0.784118
v 0.123150 -0.178023 0.775416
v 0.096071 -0.811170 0.703592
v -0.308957 0.385470 0.812405
v -0.553093 0.260929 0.693617
v -0.414048 0.075581 0.705376
v 0.308957 0.385470 0.812405
v 0.414048 0.075581 0.705376
v 0.553093 0.260929 0.693617
v -0.224125 0.132533 0.757452
v -0.331326 0.565155 0.530685
v 0.238492 0.773072 0.711296
v 0.000000 0.976525 0.190772
v 0.000000 -0.955036 0.406793
v 0.000000 -0.486100 0.298559
v -0.911953 0.420039 -0.321816
v -0.647815 -0.094710 -0.356679
v 0.380003 -0.961727 0.499138
v 0.258974 -0.315600 0.417902
v -0.707038 0.797508 -0.220440
v 0.707038 0.797508 -0.220440
v 0.331326 0.565155 0.530685
v -0.755597 0.411716 0.316887
v 0.755597 0.411716 0.316887
v -0.717301 -0.102008 -0.097735
v -1.279217 0.168899 -0.468389
v 0.717301 -0.102008 -0.097735
v -0.801454 0.038871 -0.291673
v 1.279217 0.168899 -0.468389
v 0.801454 0.038871 -0.291673
v -1.151718 0.460262 -0.412947
v 1.151718 0.460262 -0.412947
v 0.647815 -0.094710 -0.356679
v 0.911953 0.420039 -0.321816
vn 0.6387 -0.1236 0.7595
vn -0.6387 -0.1236 0.7595
vn -0.5709 0.2145 0.7925
vn 0.5709 0.2145 0.7925
vn 0.4981 0.0686 0.8644
vn -0.1357 0.9746 0.1784
vn 0.6639 0.6892 0.2904
vn 0.4590 -0.7567 0.4656
vn -0.4590 -0.7567 0.4656
vn -0.3354 0.3293 0.8826
vn -0.4376 0.3548 0.8262
vn 0.2619 -0.0527 0.9637
vn -0.3814 -0.3493 0.8559
vn 0.4033 -0.0784 0.9117
vn 0.0502 0.0414 0.9979
vn -0.0502 0.0414 0.9979
vn 0.1702 -0.0052 0.9854
vn 0.1596 -0.1582 0.9744
vn 0.2165 -0.6181 0.7557
vn -0.2165 -0.6181 0.7557
vn 0.5384 -0.1177 0.8344
vn -0.5384 -0.1177 0.8344
vn -0.0681 -0.1096 0.9916
vn -0.2291 -0.1594 0.9603
vn -1.0000 -0.0000 -0.0000
vn -0.0549 0.7581 0.6498
vn -0.2694 -0.0318 0.9625
vn 0.2694 -0.0318 0.9625
vn 0.4481 -0.2824 0.8482
vn -0.4481 -0.2824 0.8482
vn -0.5454 0.3373 0.7673
vn 0.3495 0.6985 -0.6245
vn -0.3218 0.9460 -0.0404
vn 0.9581 -0.1460 -0.2465
vn 0.2268 -0.2190 -0.9490
vn -0.4354 -0.0316 -0.8997
vn 0.5988 -0.7789 -0.1867
vn -0.5988 -0.7789 -0.1867
vn 0.9406 -0.3384 0.0287
vn -0.9406 -0.3384 0.0287
vn 0.4137 -0.0607 -0.9084
vn -0.4872 -0.1923 -0.8518
vn 0.1041 0.9649 -0.2410
vn -0.1041 0.9649 -0.2410
vn 0.0969 0.6792 0.7275
vn -0.4616 0.7557 0.4646
vn -0.9643 0.1168 0.2376
vn 0.8808 0.4188 0.2211
vn -0.8808 0.4188 0.2211
vn -0.7650 -0.6161 0.1879
vn 0.7650 -0.6161 0.1879
vn 0.5808 -0.8118 0.0601
vn -0.5808 -0.8118 0.0601
vn -0.3596 -0.0305 0.9326
vn -0.9409 -0.2551 0.2229
vn -0.0033 0.8098 0.5868
vn 0.3525 -0.0238 0.9355
vn -0.3525 -0.0238 0.9355
vn -0.3807 0.2555 -0.8887
vn -0.2109 0.0929 -0.9731
vn 0.2109 0.0929 -0.9731
vn 0.6571 -0.4122 0.6311
vn -0.6571 -0.4122 0.6311
vn -0.3176 -0.9353 0.1561
vn 0.3176 -0.9353 0.1561
vn -0.4981 0.0686 0.8644
vn 0.1357 0.9746 0.1784
vn -0.6639 0.6892 0.2904
vn 0.9380 0.2103 0.2754
vn -0.9380 0.2103 0.2754
vn 0.3354 0.3293 0.8826
vn 0.4376 0.3548 0.8262
vn -0.2619 -0.0527 0.9637
vn 0.3814 -0.3493 0.8559
vn -0.4033 -0.0784 0.9117
vn -0.1702 -0.0052 0.9854
vn -0.1596 -0.1582 0.9744
vn 0.2291 -0.1594 0.9603
vn 0.0681 -0.1096 0.9916
vn 0.0549 0.7581 0.6498
vn 0.1787 -0.1084 0.9779
vn -0.1787 -0.1084 0.9779
vn -0.3742 -0.7532 -0.5410
vn 0.3742 -0.7532 -0.5410
vn 0.5454 0.3373 0.7673
vn -0.6569 0.3055 -0.6893
vn 0.6569 0.3055 -0.6893
vn 0.3218 0.9460 -0.0404
vn -0.3495 0.6985 -0.6245
vn -0.9581 -0.1460 -0.2465
vn 0.4354 -0.0316 -0.8997
vn -0.2268 -0.2190 -0.9490
vn -0.0936 -0.9438 0.3169
vn 0.0936 -0.9438 0.3169
vn 0.2901 -0.9488 -0.1249
vn -0.2901 -0.9488 -0.1249
vn 0.4872 -0.1923 -0.8518
vn -0.4137 -0.0607 -0.9084
vn 0.5097 0.4702 -0.7205
vn -0.5097 0.4702 -0.7205
vn 0.5009 0.7239 0.4745
vn -0.5009 0.7239 0.4745
vn 0.4616 0.7557 0.4646
vn -0.0969 0.6792 0.7275
vn 0.9643 0.1168 0.2376
vn 0.3596 -0.0305 0.9326
vn 0.9409 -0.2551 0.2229
vn 0.0033 0.8098 0.5868
vn 0.3636 -0.9233 -0.1236
vn -0.3636 -0.9233 -0.1236
vn 0.3807 0.2555 -0.8887
vt 0.898341 0.617851
vt 0.862861 0.612572
vt 0.920244 0.524371
vt 0.861331 0.798265
vt 0.897011 0.794566
vt 0.914742 0.888926
vt 0.819696 0.677517
vt 0.821091 0.731468
vt 0.921180 0.713713
vt 0.965928 0.821645
vt 0.968392 0.593858
vt 0.627090 0.114468
vt 0.696854 0.245605
vt 0.540941 0.180043
vt 0.339187 0.249301
vt 0.410311 0.114399
vt 0.497137 0.180107
vt 0.424750 0.406746
vt 0.336822 0.319015
vt 0.434953 0.359511
vt 0.521515 0.362422
vt 0.607250 0.356098
vt 0.619392 0.402270
vt 0.701444 0.312420
vt 0.648761 0.292196
vt 0.390331 0.296032
vt 0.582120 0.273218
vt 0.457513 0.274759
vt 0.434405 0.327642
vt 0.527109 0.076693
vt 0.518926 0.072672
vt 0.553643 0.058903
vt 0.510745 0.076681
vt 0.484243 0.058833
vt 0.519017 0.160549
vt 0.519132 0.185382
vt 0.519841 0.200843
vt 0.517577 0.190607
vt 0.619457 0.263699
vt 0.419367 0.266052
vt 0.692106 0.388274
vt 0.350292 0.396229
vt 0.260603 0.315765
vt 0.772706 0.305686
vt 0.647032 0.020893
vt 0.530189 0.019143
vt 0.391239 0.020125
vt 0.882829 0.042675
vt 0.149539 0.028626
vt 0.783131 0.156451
vt 0.834677 0.206540
vt 0.248340 0.155313
vt 0.187015 0.205176
vt 0.996800 0.204807
vt 0.187941 0.128014
vt 0.927090 0.385070
vt 0.874410 0.265123
vt 0.146011 0.273423
vt 0.087610 0.412904
vt 0.006842 0.199644
vt 0.796339 0.395137
vt 0.826814 0.463153
vt 0.239014 0.418332
vt 0.843524 0.132638
vt 0.337300 0.863005
vt 0.222990 0.848614
vt 0.330520 0.727189
vt 0.232656 0.176633
vt 0.566374 0.771846
vt 0.427896 0.729532
vt 0.413735 0.636813
vt 0.531675 0.853290
vt 0.190507 0.765864
vt 0.492946 0.623239
vt 0.696591 0.588328
vt 0.692311 0.751771
vt 0.065013 0.741378
vt 0.268086 0.619571
vt 0.836111 0.536446
vt 0.831228 0.873128
vt 0.918898 0.699697
vt 0.606549 0.324641
vt 0.553209 0.433063
vt 0.492809 0.434538
vt 0.507714 0.019143
vt 0.207578 0.498306
vt 0.417620 0.864486
vt 0.796858 0.178006
vt 0.346731 0.634611
vt 0.076854 0.567271
s 0
f 17/23/21 26/24/21 23/25/21
f 25/26/22 21/27/22 24/28/22
f 26/24/23 17/23/23 15/29/23
f 21/27/24 25/26/24 16/30/24
f 21/27/25 16/30/25 19/31/25
f 21/27/26 19/31/26 20/32/26
f 23/25/27 22/33/27 17/23/27
f 64/34/28 34/35/28 47/36/28
f 41/37/29 32/38/29 45/39/29
f 36/40/30 42/41/30 43/42/30
f 29/43/31 44/44/31 57/45/31
f 35/46/32 44/44/32 54/47/32
f 41/37/33 50/48/33 42/41/33
f 47/36/34 34/35/34 37/49/34
f 37/49/35 29/43/35 47/36/35
f 29/43/36 55/50/36 45/39/36
f 43/42/37 49/51/37 29/43/37
f 55/50/38 29/43/38 49/51/38
f 48/52/39 27/53/39 63/54/39
f 27/53/40 38/55/40 33/56/40
f 47/36/41 48/52/41 63/54/41
f 38/55/42 45/39/42 33/56/42
f 47/36/43 27/53/43 48/52/43
f 45/39/44 27/53/44 46/57/44
f 28/58/45 40/59/45 39/60/45
f 28/58/46 40/59/46 45/39/46
f 40/59/47 47/36/47 29/43/47
f 45/39/48 40/59/48 29/43/48
f 34/35/49 54/47/49 53/61/49
f 50/48/50 41/37/50 51/62/50
f 43/42/51 50/48/51 49/51/51
f 35/46/52 67/63/52 57/45/52
f 42/41/53 56/64/53 68/65/53
f 34/35/54 69/66/54 35/46/54
f 60/67/55 63/54/55 59/68/55
f 60/69/56 33/56/56 32/38/56
f 31/70/57 64/34/57 60/67/57
f 32/38/58 31/71/58 60/69/58
f 34/35/59 72/72/59 79/73/59
f 70/74/60 41/37/60 61/75/60
f 79/73/61 31/70/61 30/76/61
f 61/75/62 31/71/62 62/77/62
f 58/78/63 66/79/63 30/76/63
f 65/80/64 58/81/64 30/82/64
f 67/83/65 58/78/65 29/84/65
f 56/85/66 58/81/66 65/80/66
f 41/37/67 68/65/67 61/75/67
f 79/73/68 66/79/68 69/66/68
f 65/80/69 61/75/69 68/65/69
f 34/35/70 78/86/70 72/72/70
f 62/77/71 41/37/71 70/74/71
f 34/35/72 64/34/72 78/86/72
f 32/38/73 41/37/73 62/77/73
f 61/87/74 76/88/74 73/89/74
f 70/74/75 61/75/75 73/90/75
f 74/91/76 75/92/76 72/93/76
f 75/92/77 74/91/77 77/94/77
f 71/95/78 73/89/78 76/88/78
f 78/96/79 79/97/79 77/98/79
f 77/98/80 74/91/80 78/96/80
f 71/95/81 76/99/81 62/100/81
f 23/25/82 26/24/82 14/101/82
f 13/102/83 25/26/83 24/28/83
f 14/101/84 26/24/84 15/29/84
f 16/30/85 25/26/85 13/102/85
f 17/23/86 18/103/86 15/29/86
f 17/23/87 22/33/87 18/103/87
f 24/28/88 21/27/88 20/32/88
f 64/34/89 47/36/89 63/54/89
f 33/56/90 45/39/90 32/38/90
f 57/45/91 44/44/91 35/46/91
f 29/43/92 36/40/92 43/42/92
f 42/41/93 50/48/93 43/42/93
f 34/35/94 35/46/94 54/47/94
f 45/39/95 55/50/95 41/37/95
f 44/44/96 29/43/96 52/104/96
f 37/49/97 52/104/97 29/43/97
f 47/36/98 46/57/98 27/53/98
f 45/39/99 38/55/99 27/53/99
f 28/58/100 47/36/100 40/59/100
f 28/58/101 46/57/101 47/36/101
f 45/39/102 46/57/102 28/58/102
f 37/49/103 34/35/103 53/61/103
f 51/62/104 41/37/104 55/50/104
f 44/44/105 52/104/105 54/47/105
f 29/43/106 57/45/106 67/105/106
f 56/106/107 36/40/107 29/43/107
f 35/46/108 69/66/108 67/63/108
f 42/41/109 36/40/109 56/64/109
f 41/37/110 42/41/110 68/65/110
f 60/67/111 64/34/111 63/54/111
f 60/69/112 59/107/112 33/56/112
f 63/54/113 27/53/113 59/107/113
f 59/107/114 27/53/114 33/56/114
f 31/70/115 78/86/115 64/34/115
f 32/38/116 62/77/116 31/71/116
f 79/73/117 78/86/117 31/70/117
f 61/75/118 30/82/118 31/71/118
f 30/76/119 66/79/119 79/73/119
f 61/75/120 65/80/120 30/82/120
f 66/79/121 67/83/121 69/66/121
f 68/65/122 56/85/122 65/80/122
f 67/83/123 66/79/123 58/78/123
f 56/85/124 29/108/124 58/81/124
f 34/35/125 79/73/125 69/66/125
f 79/109/126 75/92/126 77/94/126
f 72/72/127 75/110/127 79/73/127
f 71/95/128 70/111/128 73/89/128
f 74/91/129 72/93/129 78/96/129
f 62/100/130 70/111/130 71/95/130
f 62/100/131 76/99/131 61/112/131
o Cube
v 1.676328 -0.709274 0.709274
v 1.676328 0.709274 0.709274
v 1.676328 -0.709274 -0.709274
v 1.676328 0.709274 -0.709274
v 3.094877 -0.709274 0.709274
v 3.094877 0.709274 0.709274
v 3.094877 -0.709274 -0.709274
v 3.094877 0.709274 -0.709274
vn -1.0000 -0.0000 -0.0000
vn -0.0000 -0.0000 -1.0000
vn 1.0000 -0.0000 -0.0000
vn -0.0000 -0.0000 1.0000
vn -0.0000 -1.0000 -0.0000
vn -0.0000 1.0000 -0.0000
vt 0.625000 0.000000
vt 0.375000 0.250000
vt 0.375000 0.000000
vt 0.625000 0.250000
vt 0.375000 0.500000
vt 0.625000 0.500000
vt 0.375000 0.750000
vt 0.625000 0.750000
vt 0.375000 1.000000
vt 0.125000 0.750000
vt 0.125000 0.500000
vt 0.875000 0.500000
vt 0.625000 1.000000
vt 0.875000 0.750000
s 0
f 81/113/132 82/114/132 80/115/132
f 83/116/133 86/117/133 82/114/133
f 87/118/134 84/119/134 86/117/134
f 85/120/135 80/121/135 84/119/135
f 86/117/136 80/122/136 82/123/136
f 83/124/137 85/120/137 87/118/137
f 81/113/132 83/116/132 82/114/132
f 83/116/133 87/118/133 86/117/133
f 87/118/134 85/120/134 84/119/134
f 85/120/135 81/125/135 80/121/135
f 86/117/136 84/119/136 80/122/136
f 83/124/137 81/126/137 85/120/137
