# Blender 4.0.1
# www.blender.org
o Text
v -1.144584 0.143508 0.000000
v -1.051852 0.185869 0.000000
v -1.051852 -0.263131 0.000000
v -1.140852 -0.263131 0.000000
v -1.180711 0.112641 0.000000
v -1.328230 0.083633 0.000000
v -1.340852 -0.263131 0.000000
v -1.429852 -0.263131 0.000000
v -1.406407 0.131500 0.000000
v -1.247602 0.197124 0.000000
v -0.925852 0.418869 0.000000
v -0.836852 0.418869 0.000000
v -0.836852 -0.263131 0.000000
v -0.925852 -0.263131 0.000000
v -0.730852 -0.133131 0.000000
v -0.529314 -0.196440 0.000000
v -0.422852 -0.052131 0.000000
v -0.738852 -0.052131 0.000000
v -0.685977 0.133619 0.000000
v -0.543851 0.194869 0.000000
v -0.392352 0.131869 0.000000
v -0.333852 -0.033131 0.000000
v -0.390352 -0.199131 0.000000
v -0.582860 -0.277552 0.000000
v -0.730852 -0.219131 0.000000
v -0.431368 0.036758 0.000000
v -0.592622 0.113494 0.000000
v -0.650852 0.006869 0.000000
v -0.233852 0.418869 0.000000
v -0.144851 0.418869 0.000000
v -0.127568 0.192231 0.000000
v 0.110273 0.132119 0.000000
v 0.173149 -0.028131 0.000000
v 0.087181 -0.231628 0.000000
v -0.233852 -0.263131 0.000000
v -0.137197 -0.197892 0.000000
v 0.079052 -0.114449 0.000000
v 0.042399 0.072119 0.000000
v -0.128285 0.112534 0.000000
v 0.280149 -0.263131 0.000000
v 0.280149 0.185869 0.000000
v 0.369148 0.185869 0.000000
v 0.404128 -0.186234 0.000000
v 0.555684 -0.163146 0.000000
v 0.568149 0.185869 0.000000
v 0.657149 0.185869 0.000000
v 0.634488 -0.206579 0.000000
v 0.478651 -0.274308 0.000000
v 0.376671 -0.243110 0.000000
v 0.792149 0.418869 0.000000
v 0.884149 0.418869 0.000000
v 0.884149 -0.109131 0.000000
v 1.399374 0.429708 0.000000
v 1.424149 -0.263131 0.000000
v 1.332149 -0.263131 0.000000
v 1.332149 0.261869 0.000000
v 0.818972 -0.274780 0.000000
v 1.138880 0.143508 0.000000
v 1.046149 0.185869 0.000000
v 1.046149 -0.263131 0.000000
v 1.135149 -0.263131 0.000000
v 1.175008 0.112641 0.000000
v 1.322527 0.083633 0.000000
v 1.335148 -0.263131 0.000000
v 1.424149 -0.263131 0.000000
v 1.400703 0.131500 0.000000
v 1.241899 0.197124 0.000000
v 0.920148 0.418869 0.000000
v 0.831148 0.418869 0.000000
v 0.831148 -0.263131 0.000000
v 0.920148 -0.263131 0.000000
v 0.725148 -0.133131 0.000000
v 0.523610 -0.196440 0.000000
v 0.417148 -0.052131 0.000000
v 0.733148 -0.052131 0.000000
v 0.680273 0.133619 0.000000
v 0.538148 0.194869 0.000000
v 0.386648 0.131869 0.000000
v 0.328148 -0.033131 0.000000
v 0.384648 -0.199131 0.000000
v 0.577157 -0.277552 0.000000
v 0.725148 -0.219131 0.000000
v 0.425665 0.036758 0.000000
v 0.586919 0.113494 0.000000
v 0.645148 0.006869 0.000000
v 0.228148 0.418869 0.000000
v 0.139148 0.418869 0.000000
v 0.121865 0.192231 0.000000
v -0.115977 0.132119 0.000000
v -0.178852 -0.028131 0.000000
v -0.092884 -0.231628 0.000000
v 0.228148 -0.263131 0.000000
v 0.131494 -0.197892 0.000000
v -0.084755 -0.114449 0.000000
v -0.048102 0.072119 0.000000
v 0.122582 0.112534 0.000000
v -0.285852 -0.263131 0.000000
v -0.285852 0.185869 0.000000
v -0.374852 0.185869 0.000000
v -0.409831 -0.186234 0.000000
v -0.561387 -0.163146 0.000000
v -0.573852 0.185869 0.000000
v -0.662852 0.185869 0.000000
v -0.640191 -0.206579 0.000000
v -0.484354 -0.274308 0.000000
v -0.382374 -0.243110 0.000000
v -0.797852 0.418869 0.000000
v -0.889852 0.418869 0.000000
v -0.889852 -0.109131 0.000000
v -1.405078 0.429708 0.000001
v -1.429852 -0.263131 0.000001
v -1.337852 -0.263131 0.000001
v -1.337852 0.261869 0.000001
v -0.824675 -0.274780 0.000000
vn -0.0000 -0.0000 -1.0000
vn -0.0000 -0.0000 1.0000
vt 0.125000 0.000000
vt 0.704364 0.000000
vt 0.062500 0.000000
vt 0.739289 0.000000
vt 0.835680 0.000000
vt 0.308528 0.000000
vt 0.447502 0.000000
vt 0.187500 0.000000
vt 0.562500 0.000000
vt 0.625000 0.000000
vt 0.666667 0.000000
vt 0.000000 0.000000
vt 0.333333 0.000000
vt 1.000000 0.000000
vt 0.444444 0.000000
vt 0.388889 0.000000
vt 0.919873 0.000000
vt 0.277778 0.000000
vt 0.500000 0.000000
vt 0.795920 0.000000
vt 0.555556 0.000000
vt 0.222222 0.000000
vt 0.129771 0.000000
vt 0.722222 0.000000
vt 0.628026 0.000000
vt 0.142358 0.000000
vt 0.058824 0.000000
vt 0.529412 0.000000
vt 0.294118 0.000000
vt 0.972872 0.000000
vt 0.352941 0.000000
vt 0.823529 0.000000
vt 0.593238 0.000000
vt 0.726251 0.000000
vt 0.424505 0.000000
vt 0.721684 0.000000
vt 0.533333 0.000000
vt 0.600000 0.000000
vt 0.410344 0.000000
vt 0.260601 0.000000
vt 0.066667 0.000000
vt 0.133333 0.000000
vt 0.976584 0.000000
vt 0.820711 0.000000
vt 0.777778 0.000000
vt 0.409154 0.000000
vt 0.111111 0.000000
vt 0.964520 0.000000
s 0
f 3/1/1 1/2/1 2/3/1
f 1/2/1 9/4/1 10/5/1
f 1/2/1 5/6/1 9/4/1
f 5/6/1 6/7/1 9/4/1
f 3/1/1 5/6/1 1/2/1
f 3/1/1 4/8/1 5/6/1
f 7/9/1 9/4/1 6/7/1
f 7/9/1 8/10/1 9/4/1
f 13/11/1 11/12/1 12/13/1
f 13/11/1 14/14/1 11/12/1
f 21/15/1 19/13/1 20/16/1
f 21/15/1 27/17/1 19/13/1
f 27/17/1 18/18/1 19/13/1
f 22/19/1 26/20/1 21/15/1
f 26/20/1 27/17/1 21/15/1
f 28/14/1 18/18/1 27/17/1
f 22/19/1 28/14/1 26/20/1
f 22/19/1 18/18/1 28/14/1
f 23/21/1 17/22/1 22/19/1
f 17/22/1 18/18/1 22/19/1
f 23/21/1 16/23/1 17/22/1
f 16/23/1 25/24/1 15/12/1
f 23/21/1 25/24/1 16/23/1
f 24/25/1 25/24/1 23/21/1
f 31/26/1 29/12/1 30/27/1
f 31/26/1 35/28/1 29/12/1
f 32/29/1 39/30/1 31/26/1
f 39/30/1 35/28/1 31/26/1
f 33/31/1 38/32/1 32/29/1
f 38/32/1 39/30/1 32/29/1
f 36/33/1 35/28/1 39/30/1
f 33/31/1 37/34/1 38/32/1
f 34/35/1 37/34/1 33/31/1
f 34/35/1 36/33/1 37/34/1
f 34/35/1 35/28/1 36/33/1
f 47/36/1 45/37/1 46/38/1
f 47/36/1 44/39/1 45/37/1
f 43/40/1 41/41/1 42/42/1
f 43/40/1 40/12/1 41/41/1
f 49/43/1 40/12/1 43/40/1
f 47/36/1 43/40/1 44/39/1
f 47/36/1 49/43/1 43/40/1
f 47/36/1 48/44/1 49/43/1
f 54/21/1 56/45/1 53/46/1
f 56/45/1 52/22/1 53/46/1
f 52/22/1 50/12/1 51/47/1
f 52/22/1 57/48/1 50/12/1
f 54/21/1 55/11/1 56/45/1
f 57/48/1 52/22/1 56/45/1
f 60/1/2 58/2/2 59/3/2
f 58/2/2 66/4/2 67/5/2
f 58/2/2 62/6/2 66/4/2
f 62/6/2 63/7/2 66/4/2
f 60/1/2 62/6/2 58/2/2
f 60/1/2 61/8/2 62/6/2
f 64/9/2 66/4/2 63/7/2
f 64/9/2 65/10/2 66/4/2
f 70/11/2 68/12/2 69/13/2
f 70/11/2 71/14/2 68/12/2
f 78/15/2 76/13/2 77/16/2
f 78/15/2 84/17/2 76/13/2
f 84/17/2 75/18/2 76/13/2
f 79/19/2 83/20/2 78/15/2
f 83/20/2 84/17/2 78/15/2
f 85/14/2 75/18/2 84/17/2
f 79/19/2 85/14/2 83/20/2
f 79/19/2 75/18/2 85/14/2
f 80/21/2 74/22/2 79/19/2
f 74/22/2 75/18/2 79/19/2
f 80/21/2 73/23/2 74/22/2
f 73/23/2 82/24/2 72/12/2
f 80/21/2 82/24/2 73/23/2
f 81/25/2 82/24/2 80/21/2
f 88/26/2 86/12/2 87/27/2
f 88/26/2 92/28/2 86/12/2
f 89/29/2 96/30/2 88/26/2
f 96/30/2 92/28/2 88/26/2
f 90/31/2 95/32/2 89/29/2
f 95/32/2 96/30/2 89/29/2
f 93/33/2 92/28/2 96/30/2
f 90/31/2 94/34/2 95/32/2
f 91/35/2 94/34/2 90/31/2
f 91/35/2 93/33/2 94/34/2
f 91/35/2 92/28/2 93/33/2
f 104/36/2 102/37/2 103/38/2
f 104/36/2 101/39/2 102/37/2
f 100/40/2 98/41/2 99/42/2
f 100/40/2 97/12/2 98/41/2
f 106/43/2 97/12/2 100/40/2
f 104/36/2 100/40/2 101/39/2
f 104/36/2 106/43/2 100/40/2
f 104/36/2 105/44/2 106/43/2
f 111/21/2 113/45/2 110/46/2
f 113/45/2 109/22/2 110/46/2
f 109/22/2 107/12/2 108/47/2
f 109/22/2 114/48/2 107/12/2
f 111/21/2 112/11/2 113/45/2
f 114/48/2 109/22/2 113/45/2
