# Blender 3.6.5
# www.blender.org
o Cylinder
v 0.000000 -0.835000 -2.798663
v 0.000000 0.835000 -2.798663
v 0.480833 -0.835000 -2.599496
v 0.480833 0.835000 -2.599496
v 0.680000 -0.835000 -2.118663
v 0.680000 0.835000 -2.118663
v 0.480833 -0.835000 -1.637831
v 0.480833 0.835000 -1.637831
v 0.000000 -0.835000 -1.438663
v 0.000000 0.835000 -1.438663
v -0.480833 -0.835000 -1.637831
v -0.480833 0.835000 -1.637831
v -0.680000 -0.835000 -2.118663
v -0.680000 0.835000 -2.118663
v -0.480833 -0.835000 -2.599496
v -0.480833 0.835000 -2.599496
v -0.484034 0.020155 0.576947
v 0.484034 0.020155 0.576947
v 0.103827 0.159850 0.640278
v -0.103827 0.159850 0.640278
v 0.393837 0.378491 0.790033
v 0.156250 0.437500 0.648438
v -0.156250 0.437500 0.648438
v -0.464863 0.413575 0.544369
v -0.393837 0.378491 0.790033
v 0.464863 0.413575 0.544369
v 0.633263 0.242030 0.566494
v -0.633263 0.242030 0.566494
v -0.320532 0.114372 0.808700
v 0.320532 0.114372 0.808700
v 0.000000 -0.859401 0.691666
v 0.000000 -0.187500 0.796875
v 0.000000 0.367889 0.758962
v 0.000000 0.739405 -0.758502
v 0.000000 -0.248586 -0.692479
v -0.226815 -0.192583 0.533658
v 0.226815 -0.192583 0.533658
v -0.380003 -0.961727 0.499138
v 0.586132 -0.069318 0.571589
v 0.832894 0.398588 0.625095
v -0.238492 0.773072 0.711296
v 0.224125 0.132533 0.757452
v -0.096071 -0.811170 0.703592
v 0.000000 -0.195312 0.750000
v 0.000000 -0.140625 0.742188
v -0.586132 -0.069318 0.571589
v -0.832894 0.398588 0.625095
v -0.224831 0.552520 0.798764
v 0.224831 0.552520 0.798764
v -0.123150 -0.178023 0.775416
v 0.000000 -0.302549 0.784118
v 0.123150 -0.178023 0.775416
v 0.096071 -0.811170 0.703592
v -0.324415 0.390499 0.806824
v -0.553093 0.260929 0.693617
v -0.414048 0.075581 0.705376
v 0.197297 0.296692 0.761588
v -0.197297 0.296692 0.761588
v 0.324415 0.390499 0.806824
v 0.414048 0.075581 0.705376
v 0.553093 0.260929 0.693617
v -0.224125 0.132533 0.757452
v -0.331326 0.565155 0.530685
v 0.238492 0.773072 0.711296
v -0.785346 0.119346 0.417886
v 0.785346 0.119346 0.417886
v 0.000000 0.976525 0.190772
v 0.000000 -0.955036 0.406793
v 0.000000 -0.486100 0.298559
v 0.854750 0.356817 -0.188387
v -0.852752 0.400749 -0.446254
v -0.748555 -0.110008 -0.327691
v -0.214052 -0.410230 0.341908
v 0.380003 -0.961727 0.499138
v 0.214052 -0.410230 0.341908
v -0.713980 0.702071 -0.370019
v -0.476077 0.899132 0.128827
v 0.476077 0.899132 0.128827
v 0.331326 0.565155 0.530685
v -0.755597 0.411716 0.316887
v 0.755597 0.411716 0.316887
v 0.713980 0.702071 -0.370019
v -0.394325 -0.238686 -0.333531
v 0.394325 -0.238686 -0.333531
v -0.717301 -0.102008 -0.097735
v -1.381379 0.178077 -0.486387
v -1.090323 0.422107 -0.369601
v 1.207970 0.310146 -0.440908
v 1.090323 0.422107 -0.369601
v 0.717301 -0.102008 -0.097735
v -1.147014 0.048217 -0.437880
v -0.801454 0.038871 -0.291673
v -0.854750 0.356817 -0.188387
v 1.147014 0.048217 -0.437880
v 0.801454 0.038871 -0.291673
v -1.207970 0.310146 -0.440908
v -1.227002 0.480829 -0.552827
v 1.227002 0.480829 -0.552827
v 1.381379 0.178077 -0.486387
v 0.748555 -0.110008 -0.327691
v 0.852752 0.400749 -0.446254
v 2.293174 -1.000000 0.000000
v 3.016774 -0.447215 0.525720
v 2.016789 -0.447215 0.850640
v 1.398749 -0.447215 0.000000
v 2.016789 -0.447215 -0.850640
v 3.016774 -0.447215 -0.525720
v 2.569559 0.447215 0.850640
v 1.569574 0.447215 0.525720
v 1.569574 0.447215 -0.525720
v 2.569559 0.447215 -0.850640
v 3.187599 0.447215 0.000000
v 2.293174 1.000000 0.000000
v -3.289345 -0.768389 0.768389
v -3.289345 0.768389 0.768389
v -3.289345 -0.768389 -0.768389
v -3.289345 0.768389 -0.768389
v -1.752568 -0.768389 0.768389
v -1.752568 0.768389 0.768389
v -1.752568 -0.768389 -0.768389
v -1.752568 0.768389 -0.768389
vn 0.3827 -0.0000 -0.9239
vn 0.9239 -0.0000 -0.3827
vn 0.9239 -0.0000 0.3827
vn 0.3827 -0.0000 0.9239
vn -0.3827 -0.0000 0.9239
vn -0.9239 -0.0000 0.3827
vn -0.0000 1.0000 -0.0000
vn -0.9239 -0.0000 -0.3827
vn -0.3827 -0.0000 -0.9239
vn -0.0000 -1.0000 -0.0000
vn 0.6387 -0.1236 0.7595
vn -0.6387 -0.1236 0.7595
vn -0.5709 0.2145 0.7925
vn 0.5709 0.2145 0.7925
vn 0.4981 0.0686 0.8644
vn -0.1357 0.9746 0.1784
vn 0.6639 0.6892 0.2904
vn 0.3013 -0.9353 0.1855
vn -0.3013 -0.9353 0.1855
vn 0.7728 -0.4578 0.4396
vn -0.3354 0.3293 0.8826
vn -0.4376 0.3548 0.8262
vn 0.2619 -0.0527 0.9637
vn -0.3604 -0.2914 0.8861
vn 0.4179 -0.0835 0.9046
vn 0.0502 0.0414 0.9979
vn -0.0502 0.0414 0.9979
vn 0.0626 -0.1369 0.9886
vn 0.0238 -0.0291 0.9993
vn 0.2165 -0.6181 0.7557
vn -0.2165 -0.6181 0.7557
vn 0.5384 -0.1177 0.8344
vn -0.5384 -0.1177 0.8344
vn -0.0681 -0.1096 0.9916
vn -0.2291 -0.1594 0.9603
vn -1.0000 -0.0000 -0.0000
vn -0.0549 0.7581 0.6498
vn -0.2694 -0.0318 0.9625
vn 0.2694 -0.0318 0.9625
vn 0.4365 -0.2731 0.8572
vn -0.4365 -0.2731 0.8572
vn -0.5765 0.3900 0.7180
vn -0.2591 -0.1115 0.9594
vn 0.3495 0.6985 -0.6245
vn -0.3218 0.9460 -0.0404
vn 0.9700 0.0149 -0.2426
vn 0.2268 -0.2190 -0.9490
vn -0.2596 -0.1917 -0.9465
vn -0.3239 -0.7792 -0.5366
vn -0.3266 -0.8840 -0.3344
vn 0.3649 -0.9054 -0.2170
vn -0.3649 -0.9054 -0.2170
vn 0.9578 -0.2875 -0.0030
vn -0.9578 -0.2875 -0.0030
vn 0.3209 -0.0631 -0.9450
vn -0.4621 -0.2889 -0.8385
vn 0.1796 0.9544 -0.2384
vn -0.1796 0.9544 -0.2384
vn 0.8222 0.5404 0.1786
vn -0.8222 0.5404 0.1786
vn 0.0969 0.6792 0.7275
vn -0.2033 0.7158 0.6681
vn -0.9719 0.1588 0.1735
vn 0.8929 0.4316 0.1283
vn -0.8929 0.4316 0.1283
vn 0.9124 0.4046 0.0619
vn 0.1116 -0.9184 0.3796
vn -0.1116 -0.9184 0.3796
vn 0.5050 -0.8512 0.1428
vn -0.5050 -0.8512 0.1428
vn 0.9534 -0.2289 0.1963
vn -0.9534 -0.2289 0.1963
vn 0.3392 -0.9374 0.0787
vn 0.4749 -0.7702 0.4258
vn -0.2242 -0.0409 0.9737
vn -0.5090 0.8125 -0.2842
vn -0.6312 -0.3333 0.7004
vn -0.9423 -0.2353 0.2380
vn 0.2501 0.7285 0.6377
vn 0.4184 -0.1326 0.8985
vn -0.4184 -0.1326 0.8985
vn -0.3902 -0.0802 0.9172
vn 0.6348 0.4599 0.6209
vn -0.0693 0.9639 0.2572
vn 0.1606 0.9728 0.1670
vn -0.2351 -0.1740 -0.9563
vn -0.1170 -0.2695 -0.9559
vn 0.1170 -0.2695 -0.9559
vn 0.6571 -0.4122 0.6311
vn -0.6571 -0.4122 0.6311
vn -0.3176 -0.9353 0.1561
vn 0.3176 -0.9353 0.1561
vn -0.4981 0.0686 0.8644
vn 0.1357 0.9746 0.1784
vn -0.6639 0.6892 0.2904
vn 0.9101 0.1642 0.3804
vn -0.9101 0.1642 0.3804
vn -0.7728 -0.4578 0.4396
vn 0.3354 0.3293 0.8826
vn 0.4376 0.3548 0.8262
vn -0.2619 -0.0527 0.9637
vn 0.3604 -0.2914 0.8861
vn -0.4179 -0.0835 0.9046
vn -0.0626 -0.1369 0.9886
vn -0.0238 -0.0291 0.9993
vn 0.2291 -0.1594 0.9603
vn 0.0681 -0.1096 0.9916
vn 0.0549 0.7581 0.6498
vn 0.1787 -0.1084 0.9779
vn -0.1787 -0.1084 0.9779
vn -0.0030 -0.6803 0.7329
vn 0.0030 -0.6803 0.7329
vn 0.5765 0.3900 0.7180
vn 0.2591 -0.1115 0.9594
vn -0.6569 0.3055 -0.6893
vn 0.6569 0.3055 -0.6893
vn 0.3218 0.9460 -0.0404
vn -0.3495 0.6985 -0.6245
vn -0.9700 0.0149 -0.2426
vn 0.2596 -0.1917 -0.9465
vn -0.2268 -0.2190 -0.9490
vn -0.0936 -0.9438 0.3169
vn 0.0936 -0.9438 0.3169
vn 0.9364 0.1995 -0.2887
vn -0.9364 0.1995 -0.2887
vn 0.3239 -0.7792 -0.5366
vn 0.3266 -0.8840 -0.3344
vn 0.1982 -0.9613 -0.1912
vn -0.1982 -0.9613 -0.1912
vn 0.4621 -0.2889 -0.8385
vn -0.3209 -0.0631 -0.9450
vn 0.1116 0.9413 -0.3186
vn -0.1116 0.9413 -0.3186
vn 0.4526 0.4089 -0.7924
vn -0.4526 0.4089 -0.7924
vn 0.5258 0.5514 0.6477
vn -0.5258 0.5514 0.6477
vn 0.2033 0.7158 0.6681
vn -0.0969 0.6792 0.7275
vn 0.9719 0.1588 0.1735
vn -0.9124 0.4046 0.0619
vn -0.3392 -0.9374 0.0787
vn -0.4749 -0.7702 0.4258
vn 0.2242 -0.0409 0.9737
vn 0.5090 0.8125 -0.2842
vn 0.6312 -0.3333 0.7004
vn 0.9423 -0.2353 0.2380
vn -0.2501 0.7285 0.6377
vn 0.3902 -0.0802 0.9172
vn 0.4312 -0.8978 0.0898
vn -0.4312 -0.8978 0.0898
vn -0.6348 0.4599 0.6209
vn 0.0693 0.9639 0.2572
vn -0.1606 0.9728 0.1670
vn 0.2351 -0.1740 -0.9563
vn 0.1876 -0.7947 0.5774
vn 0.6071 -0.7947 -0.0000
vn -0.4911 -0.7947 0.3568
vn -0.4911 -0.7947 -0.3568
vn 0.1876 -0.7947 -0.5774
vn 0.9822 -0.1876 -0.0000
vn 0.3035 -0.1876 0.9342
vn -0.7946 -0.1876 0.5774
vn -0.7946 -0.1876 -0.5774
vn 0.3035 -0.1876 -0.9342
vn 0.7946 0.1876 0.5774
vn -0.3035 0.1876 0.9342
vn -0.9822 0.1876 -0.0000
vn -0.3035 0.1876 -0.9342
vn 0.7946 0.1876 -0.5774
vn 0.4911 0.7947 0.3568
vn -0.1876 0.7947 0.5774
vn -0.6071 0.7947 -0.0000
vn -0.1876 0.7947 -0.5774
vn 0.4911 0.7947 -0.3568
vn -0.0000 -0.0000 -1.0000
vn 1.0000 -0.0000 -0.0000
vn -0.0000 -0.0000 1.0000
vt 1.000000 1.000000
vt 0.875000 0.500000
vt 1.000000 0.500000
vt 0.875000 1.000000
vt 0.750000 0.500000
vt 0.750000 1.000000
vt 0.625000 0.500000
vt 0.625000 1.000000
vt 0.500000 0.500000
vt 0.500000 1.000000
vt 0.375000 0.500000
vt 0.375000 1.000000
vt 0.250000 0.500000
vt 0.010000 0.250000
vt 0.250000 0.010000
vt 0.490000 0.250000
vt 0.250000 1.000000
vt 0.125000 0.500000
vt 0.125000 1.000000
vt 0.000000 0.500000
vt 0.919706 0.080294
vt 0.580294 0.080294
vt 0.580294 0.419706
vt 0.898341 0.617851
vt 0.862861 0.612572
vt 0.920244 0.524371
vt 0.861331 0.798265
vt 0.897011 0.794566
vt 0.914742 0.888926
vt 0.819696 0.677517
vt 0.821091 0.731468
vt 0.921180 0.713713
vt 0.965928 0.821645
vt 0.968392 0.593858
vt 0.613919 0.156910
vt 0.662732 0.229131
vt 0.540941 0.180043
vt 0.374310 0.231491
vt 0.423476 0.157362
vt 0.497137 0.180107
vt 0.701444 0.312420
vt 0.716667 0.255171
vt 0.424750 0.406746
vt 0.336822 0.319015
vt 0.434953 0.359511
vt 0.521515 0.362422
vt 0.607250 0.356098
vt 0.619392 0.402270
vt 0.648761 0.292196
vt 0.390331 0.296032
vt 0.582120 0.273218
vt 0.457513 0.274759
vt 0.461276 0.311337
vt 0.527109 0.076693
vt 0.518926 0.072672
vt 0.553643 0.058903
vt 0.510745 0.076681
vt 0.484243 0.058833
vt 0.519017 0.160549
vt 0.519132 0.185382
vt 0.519841 0.200843
vt 0.517577 0.190607
vt 0.619457 0.263699
vt 0.419367 0.266052
vt 0.432040 0.329077
vt 0.579480 0.309446
vt 0.608931 0.325978
vt 0.692106 0.388274
vt 0.350292 0.396229
vt 0.260603 0.315765
vt 0.772706 0.305686
vt 0.647032 0.020893
vt 0.530189 0.019143
vt 0.391239 0.020125
vt 0.400621 0.082778
vt 0.318792 0.259643
vt 0.175905 0.137223
vt 0.149539 0.028626
vt 0.226368 0.098615
vt 0.882829 0.042675
vt 0.636784 0.083229
vt 0.783131 0.156451
vt 0.827740 0.210975
vt 0.248340 0.155313
vt 0.203432 0.216899
vt 0.840546 0.202788
vt 0.996800 0.204807
vt 0.173127 0.195258
vt 0.927090 0.385070
vt 0.874489 0.242181
vt 0.145549 0.247319
vt 0.087610 0.412904
vt 0.006842 0.199644
vt 0.874203 0.325258
vt 0.147220 0.341845
vt 0.796339 0.395137
vt 0.826814 0.463153
vt 0.239014 0.418332
vt 0.806925 0.103471
vt 0.854987 0.141773
vt 0.222990 0.848614
vt 0.161809 0.747616
vt 0.198911 0.798981
vt 0.225263 0.743995
vt 0.532373 0.749055
vt 0.413735 0.636813
vt 0.595488 0.754506
vt 0.337300 0.863005
vt 0.330520 0.727189
vt 0.232656 0.176633
vt 0.427896 0.729532
vt 0.557052 0.804584
vt 0.531675 0.853290
vt 0.661965 0.735554
vt 0.707492 0.759884
vt 0.741958 0.591463
vt 0.042009 0.548905
vt 0.106331 0.582808
vt 0.095969 0.726496
vt 0.492946 0.623239
vt 0.658213 0.585676
vt 0.268086 0.619571
vt 0.836111 0.536446
vt 0.831228 0.873128
vt 0.918898 0.699697
vt 0.553209 0.433063
vt 0.492809 0.434538
vt 0.507714 0.019143
vt 0.207578 0.498306
vt 0.346731 0.634611
vt 0.417620 0.864486
vt 0.796858 0.178006
vt 0.049526 0.748824
vt 0.181819 0.000000
vt 0.272728 0.157461
vt 0.090910 0.157461
vt 0.363637 0.000000
vt 0.454546 0.157461
vt 0.909091 0.000000
vt 1.000000 0.157461
vt 0.818182 0.157461
vt 0.727273 0.000000
vt 0.636364 0.157461
vt 0.545455 0.000000
vt 0.363637 0.314921
vt 0.181819 0.314921
vt 0.909091 0.314921
vt 0.727273 0.314921
vt 0.545455 0.314921
vt 0.000000 0.314921
vt 0.272728 0.472382
vt 0.090910 0.472382
vt 0.818182 0.472382
vt 0.636364 0.472382
vt 0.454546 0.472382
vt 0.625000 0.000000
vt 0.375000 0.250000
vt 0.375000 0.000000
vt 0.625000 0.250000
vt 0.375000 0.750000
vt 0.625000 0.750000
vt 0.125000 0.750000
vt 0.419706 0.419706
vt 0.250000 0.490000
vt 0.080294 0.419706
vt 0.080294 0.080294
vt 0.419706 0.080294
vt 0.000000 1.000000
vt 0.750000 0.490000
vt 0.919706 0.419706
vt 0.990000 0.250000
vt 0.750000 0.010000
vt 0.510000 0.250000
vt 0.875000 0.750000
s 0
f 2/1/1 3/2/1 1/3/1
f 4/4/2 5/5/2 3/2/2
f 6/6/3 7/7/3 5/5/3
f 8/8/4 9/9/4 7/7/4
f 10/10/5 11/11/5 9/9/5
f 12/12/6 13/13/6 11/11/6
f 14/14/7 10/15/7 6/16/7
f 14/17/8 15/18/8 13/13/8
f 16/19/9 1/20/9 15/18/9
f 7/21/10 11/22/10 15/23/10
f 21/24/11 30/25/11 27/26/11
f 29/27/12 25/28/12 28/29/12
f 30/25/13 21/24/13 19/30/13
f 25/28/14 29/27/14 20/31/14
f 25/28/15 20/31/15 23/32/15
f 25/28/16 23/32/16 24/33/16
f 27/26/17 26/34/17 21/24/17
f 37/35/18 39/36/18 52/37/18
f 46/38/19 36/39/19 50/40/19
f 40/41/20 39/36/20 66/42/20
f 41/43/21 47/44/21 48/45/21
f 33/46/22 49/47/22 64/48/22
f 40/41/23 49/47/23 61/49/23
f 46/38/24 55/50/24 47/44/24
f 52/37/25 39/36/25 42/51/25
f 42/51/26 33/46/26 52/37/26
f 33/46/27 62/52/27 50/40/27
f 48/45/28 58/53/28 33/46/28
f 62/52/29 33/46/29 58/53/29
f 53/54/30 31/55/30 74/56/30
f 31/55/31 43/57/31 38/58/31
f 52/37/32 53/54/32 74/56/32
f 43/57/33 50/40/33 38/58/33
f 52/37/34 31/55/34 53/54/34
f 50/40/35 31/55/35 51/59/35
f 32/60/36 45/61/36 44/62/36
f 32/60/37 45/61/37 50/40/37
f 45/61/38 52/37/38 33/46/38
f 50/40/39 45/61/39 33/46/39
f 39/36/40 61/49/40 60/63/40
f 55/50/41 46/38/41 56/64/41
f 48/45/42 55/50/42 54/65/42
f 57/66/43 59/67/43 49/47/43
f 40/41/44 79/68/44 64/48/44
f 47/44/45 63/69/45 80/70/45
f 66/42/46 81/71/46 40/41/46
f 69/72/47 74/56/47 68/73/47
f 69/74/48 38/58/48 73/75/48
f 36/39/49 46/38/49 65/76/49
f 72/77/50 35/78/50 83/79/50
f 35/80/51 75/81/51 69/72/51
f 73/75/52 35/78/52 69/74/52
f 66/42/53 90/82/53 70/83/53
f 85/84/54 65/76/54 93/85/54
f 101/86/55 35/80/55 34/87/55
f 71/88/56 35/78/56 72/77/56
f 67/89/57 82/90/57 34/87/57
f 76/91/58 67/92/58 34/93/58
f 78/94/59 81/71/59 82/90/59
f 80/70/60 77/95/60 76/91/60
f 79/96/61 67/89/61 33/97/61
f 63/98/62 67/92/62 77/95/62
f 65/76/63 80/70/63 93/85/63
f 70/83/64 82/90/64 81/71/64
f 76/91/65 93/85/65 80/70/65
f 82/90/66 70/83/66 101/86/66
f 66/42/67 84/99/67 90/82/67
f 83/79/68 65/76/68 85/84/68
f 66/42/69 37/35/69 84/99/69
f 36/39/70 65/76/70 83/79/70
f 37/35/71 75/81/71 84/99/71
f 83/79/72 73/75/72 36/39/72
f 84/99/73 100/100/73 90/82/73
f 87/101/74 86/102/74 96/103/74
f 96/103/75 86/102/75 91/104/75
f 94/105/76 90/106/76 99/107/76
f 93/108/77 87/101/77 92/109/77
f 85/84/78 93/85/78 92/110/78
f 94/105/79 95/111/79 90/106/79
f 95/111/80 88/112/80 89/113/80
f 96/103/81 92/109/81 87/101/81
f 96/103/82 91/104/82 92/109/82
f 99/107/83 98/114/83 89/115/83
f 89/115/84 98/114/84 70/116/84
f 93/117/85 71/118/85 97/119/85
f 100/120/86 101/121/86 98/114/86
f 98/114/87 99/107/87 100/120/87
f 86/102/88 97/119/88 72/122/88
f 27/26/89 30/25/89 18/123/89
f 17/124/90 29/27/90 28/29/90
f 18/123/91 30/25/91 19/30/91
f 20/31/92 29/27/92 17/124/92
f 21/24/93 22/125/93 19/30/93
f 21/24/94 26/34/94 22/125/94
f 28/29/95 25/28/95 24/33/95
f 37/35/96 52/37/96 74/56/96
f 38/58/97 50/40/97 36/39/97
f 47/44/98 65/76/98 46/38/98
f 64/48/99 49/47/99 40/41/99
f 33/46/100 41/43/100 48/45/100
f 47/44/101 55/50/101 48/45/101
f 39/36/102 40/41/102 61/49/102
f 50/40/103 62/52/103 46/38/103
f 49/47/104 33/46/104 57/66/104
f 42/51/105 57/66/105 33/46/105
f 52/37/106 51/59/106 31/55/106
f 50/40/107 43/57/107 31/55/107
f 32/60/108 52/37/108 45/61/108
f 32/60/109 51/59/109 52/37/109
f 50/40/110 51/59/110 32/60/110
f 42/51/111 39/36/111 60/63/111
f 56/64/112 46/38/112 62/52/112
f 49/47/113 59/67/113 61/49/113
f 58/53/114 48/45/114 54/65/114
f 33/46/115 64/48/115 79/126/115
f 63/127/116 41/43/116 33/46/116
f 40/41/117 81/71/117 79/68/117
f 47/44/118 41/43/118 63/69/118
f 65/76/119 47/44/119 80/70/119
f 69/72/120 75/81/120 74/56/120
f 69/74/121 68/128/121 38/58/121
f 74/56/122 31/55/122 68/128/122
f 68/128/123 31/55/123 38/58/123
f 37/35/124 74/56/124 75/81/124
f 73/75/125 38/58/125 36/39/125
f 37/35/126 66/42/126 39/36/126
f 100/100/127 84/99/127 35/80/127
f 35/80/128 84/99/128 75/81/128
f 73/75/129 83/79/129 35/78/129
f 101/86/130 100/100/130 35/80/130
f 71/88/131 34/93/131 35/78/131
f 67/89/132 78/94/132 82/90/132
f 76/91/133 77/95/133 67/92/133
f 34/87/134 82/90/134 101/86/134
f 71/88/135 76/91/135 34/93/135
f 78/94/136 79/96/136 81/71/136
f 80/70/137 63/98/137 77/95/137
f 79/96/138 78/94/138 67/89/138
f 63/98/139 33/129/139 67/92/139
f 66/42/140 70/83/140 81/71/140
f 76/91/141 71/88/141 93/85/141
f 83/79/142 85/84/142 72/77/142
f 89/113/143 88/112/143 99/107/143
f 88/112/144 94/105/144 99/107/144
f 91/104/145 86/102/145 85/130/145
f 70/131/146 95/111/146 89/113/146
f 90/82/147 95/132/147 70/83/147
f 91/104/148 85/130/148 92/109/148
f 88/112/149 95/111/149 94/105/149
f 99/107/150 90/106/150 100/120/150
f 72/122/151 85/130/151 86/102/151
f 86/102/152 87/133/152 97/119/152
f 87/133/153 93/117/153 97/119/153
f 70/116/154 98/114/154 101/121/154
f 72/122/155 97/119/155 71/118/155
f 102/134/156 103/135/156 104/136/156
f 103/135/157 102/137/157 107/138/157
f 102/139/158 104/140/158 105/141/158
f 102/142/159 105/141/159 106/143/159
f 102/144/160 106/143/160 107/138/160
f 103/135/161 107/138/161 112/145/161
f 104/136/162 103/135/162 108/146/162
f 105/141/163 104/140/163 109/147/163
f 106/143/164 105/141/164 110/148/164
f 107/138/165 106/143/165 111/149/165
f 103/135/166 112/145/166 108/146/166
f 104/136/167 108/146/167 109/150/167
f 105/141/168 109/147/168 110/148/168
f 106/143/169 110/148/169 111/149/169
f 107/138/170 111/149/170 112/145/170
f 108/146/171 112/145/171 113/151/171
f 109/150/172 108/146/172 113/152/172
f 110/148/173 109/147/173 113/153/173
f 111/149/174 110/148/174 113/154/174
f 112/145/175 111/149/175 113/155/175
f 115/156/36 116/157/36 114/158/36
f 117/159/176 120/11/176 116/157/176
f 121/7/177 118/160/177 120/11/177
f 119/161/178 114/12/178 118/160/178
f 120/11/10 114/162/10 116/18/10
f 117/2/7 119/161/7 121/7/7
f 2/1/1 4/4/1 3/2/1
f 4/4/2 6/6/2 5/5/2
f 6/6/3 8/8/3 7/7/3
f 8/8/4 10/10/4 9/9/4
f 10/10/5 12/12/5 11/11/5
f 12/12/6 14/17/6 13/13/6
f 6/16/7 4/163/7 2/164/7
f 2/164/7 16/165/7 14/14/7
f 14/14/7 12/166/7 10/15/7
f 10/15/7 8/167/7 6/16/7
f 6/16/7 2/164/7 14/14/7
f 14/17/8 16/19/8 15/18/8
f 16/19/9 2/168/9 1/20/9
f 15/23/10 1/169/10 3/170/10
f 3/170/10 5/171/10 7/21/10
f 7/21/10 9/172/10 11/22/10
f 11/22/10 13/173/10 15/23/10
f 15/23/10 3/170/10 7/21/10
f 115/156/36 117/159/36 116/157/36
f 117/159/176 121/7/176 120/11/176
f 121/7/177 119/161/177 118/160/177
f 119/161/178 115/8/178 114/12/178
f 120/11/10 118/160/10 114/162/10
f 117/2/7 115/174/7 119/161/7
