# Blender 4.0.1
# www.blender.org
o Icosphere
v 0.000000 -1.000000 0.000000
v 0.723600 -0.447215 0.525720
v -0.276385 -0.447215 0.850640
v -0.894425 -0.447215 0.000000
v -0.276385 -0.447215 -0.850640
v 0.723600 -0.447215 -0.525720
v 0.276385 0.447215 0.850640
v -0.723600 0.447215 0.525720
v -0.723600 0.447215 -0.525720
v 0.276385 0.447215 -0.850640
v 0.894425 0.447215 0.000000
v 0.000000 1.000000 0.000000
vn 0.1876 -0.7947 0.5774
vn 0.6071 -0.7947 -0.0000
vn -0.4911 -0.7947 0.3568
vn -0.4911 -0.7947 -0.3568
vn 0.1876 -0.7947 -0.5774
vn 0.9822 -0.1876 -0.0000
vn 0.3035 -0.1876 0.9342
vn -0.7946 -0.1876 0.5774
vn -0.7946 -0.1876 -0.5774
vn 0.3035 -0.1876 -0.9342
vn 0.7946 0.1876 0.5774
vn -0.3035 0.1876 0.9342
vn -0.9822 0.1876 -0.0000
vn -0.3035 0.1876 -0.9342
vn 0.7946 0.1876 -0.5774
vn 0.4911 0.7947 0.3568
vn -0.1876 0.7947 0.5774
vn -0.6071 0.7947 -0.0000
vn -0.1876 0.7947 -0.5774
vn 0.4911 0.7947 -0.3568
vt 0.181819 0.000000
vt 0.272728 0.157461
vt 0.090910 0.157461
vt 0.363637 0.000000
vt 0.454546 0.157461
vt 0.909091 0.000000
vt 1.000000 0.157461
vt 0.818182 0.157461
vt 0.727273 0.000000
vt 0.636364 0.157461
vt 0.545455 0.000000
vt 0.363637 0.314921
vt 0.181819 0.314921
vt 0.909091 0.314921
vt 0.727273 0.314921
vt 0.545455 0.314921
vt 0.000000 0.314921
vt 0.272728 0.472382
vt 0.090910 0.472382
vt 0.818182 0.472382
vt 0.636364 0.472382
vt 0.454546 0.472382
s 0
f 1/1/1 2/2/1 3/3/1
f 2/2/2 1/4/2 6/5/2
f 1/6/3 3/7/3 4/8/3
f 1/9/4 4/8/4 5/10/4
f 1/11/5 5/10/5 6/5/5
f 2/2/6 6/5/6 11/12/6
f 3/3/7 2/2/7 7/13/7
f 4/8/8 3/7/8 8/14/8
f 5/10/9 4/8/9 9/15/9
f 6/5/10 5/10/10 10/16/10
f 2/2/11 11/12/11 7/13/11
f 3/3/12 7/13/12 8/17/12
f 4/8/13 8/14/13 9/15/13
f 5/10/14 9/15/14 10/16/14
f 6/5/15 10/16/15 11/12/15
f 7/13/16 11/12/16 12/18/16
f 8/17/17 7/13/17 12/19/17
f 9/15/18 8/14/18 12/20/18
f 10/16/19 9/15/19 12/21/19
f 11/12/20 10/16/20 12/22/20
o Cylinder
v 2.324432 -0.560000 -0.700000
v 2.324432 0.560000 -0.700000
v 2.990171 -0.560000 -0.216312
v 2.990171 0.560000 -0.216312
v 2.735881 -0.560000 0.566312
v 2.735881 0.560000 0.566312
v 1.912982 -0.560000 0.566312
v 1.912982 0.560000 0.566312
v 1.658692 -0.560000 -0.216312
v 1.658692 0.560000 -0.216312
vn 0.5878 -0.0000 -0.8090
vn 0.9511 -0.0000 0.3090
vn -0.0000 -0.0000 1.0000
vn -0.0000 1.0000 -0.0000
vn -0.9511 -0.0000 0.3090
vn -0.5878 -0.0000 -0.8090
vn -0.0000 -1.0000 -0.0000
vt 1.000000 1.000000
vt 0.800000 0.500000
vt 1.000000 0.500000
vt 0.800000 1.000000
vt 0.600000 0.500000
vt 0.600000 1.000000
vt 0.400000 0.500000
vt 0.250000 0.490000
vt 0.108932 0.055836
vt 0.391068 0.055836
vt 0.400000 1.000000
vt 0.200000 0.500000
vt 0.200000 1.000000
vt 0.000000 0.500000
vt 0.978254 0.324164
vt 0.608932 0.055836
vt 0.521746 0.324164
vt 0.478254 0.324164
vt 0.021746 0.324164
vt 0.000000 1.000000
vt 0.750000 0.490000
vt 0.891068 0.055836
s 0
f 14/23/21 15/24/21 13/25/21
f 16/26/22 17/27/22 15/24/22
f 18/28/23 19/29/23 17/27/23
f 14/30/24 20/31/24 18/32/24
f 20/33/25 21/34/25 19/29/25
f 22/35/26 13/36/26 21/34/26
f 15/37/27 19/38/27 21/39/27
f 14/23/21 16/26/21 15/24/21
f 16/26/22 18/28/22 17/27/22
f 18/28/23 20/33/23 19/29/23
f 18/32/24 16/40/24 14/30/24
f 14/30/24 22/41/24 20/31/24
f 20/33/25 22/35/25 21/34/25
f 22/35/26 14/42/26 13/36/26
f 21/39/27 13/43/27 15/37/27
f 15/37/27 17/44/27 19/38/27
o Cone
v 0.000000 1.277585 -0.880000
v 0.762102 1.277585 -0.440000
v 0.762102 1.277585 0.440000
v 0.000000 1.277585 0.880000
v -0.762102 1.277585 0.440000
v -0.762102 1.277585 -0.440000
v 0.000000 2.277585 0.000000
vn 0.3977 0.6061 -0.6888
vn 0.7954 0.6061 -0.0000
vn 0.3977 0.6061 0.6888
vn -0.3977 0.6061 0.6888
vn -0.0000 -1.0000 -0.0000
vn -0.7954 0.6061 -0.0000
vn -0.3977 0.6061 -0.6888
vt 0.250000 0.490000
vt 0.250000 0.250000
vt 0.457846 0.370000
vt 0.457846 0.130000
vt 0.250000 0.010000
vt 0.042154 0.130000
vt 0.957846 0.370000
vt 0.750000 0.010000
vt 0.542154 0.370000
vt 0.042154 0.370000
vt 0.750000 0.490000
vt 0.957846 0.130000
vt 0.542154 0.130000
s 0
f 23/45/28 29/46/28 24/47/28
f 24/47/29 29/46/29 25/48/29
f 25/48/30 29/46/30 26/49/30
f 26/49/31 29/46/31 27/50/31
f 24/51/32 26/52/32 28/53/32
f 27/50/33 29/46/33 28/54/33
f 28/54/34 29/46/34 23/45/34
f 28/53/32 23/55/32 24/51/32
f 24/51/32 25/56/32 26/52/32
f 26/52/32 27/57/32 28/53/32
o Torus
v 1.250000 0.000000 -2.250942
v 1.125000 0.216506 -2.250942
v 0.875000 0.216506 -2.250942
v 0.750000 0.000000 -2.250942
v 0.875000 -0.216506 -2.250942
v 1.125000 -0.216506 -2.250942
v 0.625000 0.000000 -3.333474
v 0.562500 0.216506 -3.225221
v 0.437500 0.216506 -3.008714
v 0.375000 0.000000 -2.900461
v 0.437500 -0.216506 -3.008714
v 0.562500 -0.216506 -3.225221
v -0.625000 0.000000 -3.333474
v -0.562500 0.216506 -3.225221
v -0.437500 0.216506 -3.008714
v -0.375000 0.000000 -2.900461
v -0.437500 -0.216506 -3.008714
v -0.562500 -0.216506 -3.225221
v -1.250000 0.000000 -2.250942
v -1.125000 0.216506 -2.250942
v -0.875000 0.216506 -2.250942
v -0.750000 0.000000 -2.250942
v -0.875000 -0.216506 -2.250942
v -1.125000 -0.216506 -2.250942
v -0.625000 0.000000 -1.168410
v -0.562500 0.216506 -1.276663
v -0.437500 0.216506 -1.493170
v -0.375000 0.000000 -1.601423
v -0.437500 -0.216506 -1.493170
v -0.562500 -0.216506 -1.276663
v 0.625000 0.000000 -1.168410
v 0.562500 0.216506 -1.276663
v 0.437500 0.216506 -1.493170
v 0.375000 0.000000 -1.601423
v 0.437500 -0.216506 -1.493170
v 0.562500 -0.216506 -1.276663
vn 0.7746 0.4472 -0.4472
vn -0.0000 1.0000 -0.0000
vn -0.7746 0.4472 0.4472
vn -0.7746 -0.4472 0.4472
vn -0.0000 -1.0000 -0.0000
vn 0.7746 -0.4472 -0.4472
vn -0.0000 0.4472 -0.8944
vn -0.0000 0.4472 0.8944
vn -0.0000 -0.4472 0.8944
vn -0.0000 -0.4472 -0.8944
vn -0.7746 0.4472 -0.4472
vn 0.7746 0.4472 0.4472
vn 0.7746 -0.4472 0.4472
vn -0.7746 -0.4472 -0.4472
vt 0.666667 0.500000
vt 0.500000 0.666667
vt 0.500000 0.500000
vt 0.666667 0.666667
vt 0.500000 0.833333
vt 0.666667 0.833333
vt 0.500000 1.000000
vt 0.666667 -0.000000
vt 0.500000 0.166667
vt 0.500000 -0.000000
vt 0.666667 0.166667
vt 0.500000 0.333333
vt 0.833333 0.500000
vt 0.833333 0.666667
vt 0.833333 0.833333
vt 0.666667 1.000000
vt 0.833333 -0.000000
vt 0.833333 0.166667
vt 0.666667 0.333333
vt 0.833333 0.333333
vt 1.000000 0.500000
vt 1.000000 0.833333
vt 0.833333 1.000000
vt 1.000000 -0.000000
vt 1.000000 0.166667
vt 0.166667 0.500000
vt -0.000000 0.666667
vt -0.000000 0.500000
vt 0.166667 0.666667
vt -0.000000 0.833333
vt 0.166667 0.833333
vt -0.000000 1.000000
vt 0.166667 -0.000000
vt -0.000000 0.166667
vt -0.000000 -0.000000
vt 0.166667 0.166667
vt -0.000000 0.333333
vt 0.166667 0.333333
vt 0.333333 0.500000
vt 0.333333 0.666667
vt 0.333333 0.833333
vt 0.166667 1.000000
vt 0.333333 -0.000000
vt 0.333333 0.333333
vt 0.333333 1.000000
vt 0.333333 0.166667
vt 1.000000 0.666667
vt 1.000000 1.000000
vt 1.000000 0.333333
s 0
f 36/58/35 31/59/35 30/60/35
f 37/61/36 32/62/36 31/59/36
f 38/63/37 33/64/37 32/62/37
f 39/65/38 34/66/38 33/67/38
f 40/68/39 35/69/39 34/66/39
f 35/69/40 36/58/40 30/60/40
f 42/70/41 37/61/41 36/58/41
f 43/71/36 38/63/36 37/61/36
f 44/72/42 39/73/42 38/63/42
f 45/74/43 40/68/43 39/65/43
f 46/75/39 41/76/39 40/68/39
f 47/77/44 36/58/44 41/76/44
f 48/78/45 43/71/45 42/70/45
f 43/71/36 50/79/36 44/72/36
f 50/79/46 45/80/46 44/72/46
f 51/81/47 46/75/47 45/74/47
f 52/82/39 47/77/39 46/75/39
f 47/77/48 48/78/48 42/70/48
f 54/83/37 49/84/37 48/85/37
f 55/86/36 50/87/36 49/84/36
f 56/88/35 51/89/35 50/87/35
f 57/90/40 52/91/40 51/92/40
f 58/93/39 53/94/39 52/91/39
f 59/95/38 48/85/38 53/94/38
f 60/96/42 55/86/42 54/83/42
f 61/97/36 56/88/36 55/86/36
f 62/98/41 57/99/41 56/88/41
f 63/100/44 58/93/44 57/90/44
f 58/93/39 65/101/39 59/95/39
f 65/101/43 54/83/43 59/95/43
f 30/60/46 61/97/46 60/96/46
f 31/59/36 62/98/36 61/97/36
f 32/62/45 63/102/45 62/98/45
f 33/67/48 64/103/48 63/100/48
f 34/66/39 65/101/39 64/103/39
f 35/69/47 60/96/47 65/101/47
f 36/58/35 37/61/35 31/59/35
f 37/61/36 38/63/36 32/62/36
f 38/63/37 39/73/37 33/64/37
f 39/65/38 40/68/38 34/66/38
f 40/68/39 41/76/39 35/69/39
f 35/69/40 41/76/40 36/58/40
f 42/70/41 43/71/41 37/61/41
f 43/71/36 44/72/36 38/63/36
f 44/72/42 45/80/42 39/73/42
f 45/74/43 46/75/43 40/68/43
f 46/75/39 47/77/39 41/76/39
f 47/77/44 42/70/44 36/58/44
f 48/78/45 49/104/45 43/71/45
f 43/71/36 49/104/36 50/79/36
f 50/79/46 51/105/46 45/80/46
f 51/81/47 52/82/47 46/75/47
f 52/82/39 53/106/39 47/77/39
f 47/77/48 53/106/48 48/78/48
f 54/83/37 55/86/37 49/84/37
f 55/86/36 56/88/36 50/87/36
f 56/88/35 57/99/35 51/89/35
f 57/90/40 58/93/40 52/91/40
f 58/93/39 59/95/39 53/94/39
f 59/95/38 54/83/38 48/85/38
f 60/96/42 61/97/42 55/86/42
f 61/97/36 62/98/36 56/88/36
f 62/98/41 63/102/41 57/99/41
f 63/100/44 64/103/44 58/93/44
f 58/93/39 64/103/39 65/101/39
f 65/101/43 60/96/43 54/83/43
f 30/60/46 31/59/46 61/97/46
f 31/59/36 32/62/36 62/98/36
f 32/62/45 33/64/45 63/102/45
f 33/67/48 34/66/48 64/103/48
f 34/66/39 35/69/39 65/101/39
f 35/69/47 30/60/47 60/96/47
o Cube
v -2.689991 -0.704129 0.704129
v -2.689991 0.704129 0.704129
v -2.689991 -0.704129 -0.704129
v -2.689991 0.704129 -0.704129
v -1.281732 -0.704129 0.704129
v -1.281732 0.704129 0.704129
v -1.281732 -0.704129 -0.704129
v -1.281732 0.704129 -0.704129
vn -1.0000 -0.0000 -0.0000
vn -0.0000 -0.0000 -1.0000
vn 1.0000 -0.0000 -0.0000
vn -0.0000 -0.0000 1.0000
vn -0.0000 -1.0000 -0.0000
vn -0.0000 1.0000 -0.0000
vt 0.625000 0.000000
vt 0.375000 0.250000
vt 0.375000 0.000000
vt 0.625000 0.250000
vt 0.375000 0.500000
vt 0.625000 0.500000
vt 0.375000 0.750000
vt 0.625000 0.750000
vt 0.375000 1.000000
vt 0.125000 0.750000
vt 0.125000 0.500000
vt 0.875000 0.500000
vt 0.625000 1.000000
vt 0.875000 0.750000
s 0
f 67/107/49 68/108/49 66/109/49
f 69/110/50 72/111/50 68/108/50
f 73/112/51 70/113/51 72/111/51
f 71/114/52 66/115/52 70/113/52
f 72/111/53 66/116/53 68/117/53
f 69/118/54 71/114/54 73/112/54
f 67/107/49 69/110/49 68/108/49
f 69/110/50 73/112/50 72/111/50
f 73/112/51 71/114/51 70/113/51
f 71/114/52 67/119/52 66/115/52
f 72/111/53 70/113/53 66/116/53
f 69/118/54 67/120/54 71/114/54
o Suzanne
v -0.484034 0.020155 2.606177
v 0.484034 0.020155 2.606177
v 0.103827 0.159850 2.669507
v -0.103827 0.159850 2.669507
v 0.393837 0.378491 2.819262
v 0.156250 0.437500 2.677667
v -0.156250 0.437500 2.677667
v -0.464863 0.413575 2.573598
v -0.393837 0.378491 2.819262
v 0.464863 0.413575 2.573598
v 0.633263 0.242030 2.595723
v -0.633263 0.242030 2.595723
v -0.320532 0.114372 2.837929
v 0.320532 0.114372 2.837929
v 0.000000 0.372944 2.818923
v 0.000000 -0.859401 2.720895
v 0.000000 -0.187500 2.826104
v 0.000000 0.455016 2.644344
v 0.000000 0.739405 1.270727
v 0.000000 -0.248586 1.336750
v -0.226815 -0.192583 2.562887
v 0.226815 -0.192583 2.562887
v -0.380003 -0.961727 2.528368
v 0.586132 -0.069318 2.600818
v 0.832894 0.398588 2.654324
v -0.238492 0.773072 2.740525
v 0.224125 0.132533 2.786681
v -0.096071 -0.811170 2.732821
v 0.000000 -0.195312 2.779229
v 0.000000 -0.140625 2.771417
v -0.586132 -0.069318 2.600818
v -0.832894 0.398588 2.654324
v -0.224831 0.552520 2.827993
v 0.224831 0.552520 2.827993
v -0.123150 -0.178023 2.804646
v 0.000000 -0.302549 2.813348
v 0.123150 -0.178023 2.804646
v 0.096071 -0.811170 2.732821
v -0.324415 0.390499 2.836053
v -0.553093 0.260929 2.722846
v -0.414048 0.075581 2.734605
v 0.197297 0.296692 2.790817
v -0.197297 0.296692 2.790817
v 0.324415 0.390499 2.836053
v 0.414048 0.075581 2.734605
v 0.553093 0.260929 2.722846
v -0.224125 0.132533 2.786681
v -0.331326 0.565155 2.559914
v 0.238492 0.773072 2.740525
v -0.785346 0.119346 2.447115
v 0.785346 0.119346 2.447115
v 0.000000 0.976525 2.220001
v 0.000000 -0.955036 2.436022
v 0.000000 -0.486100 2.327788
v 0.854750 0.356817 1.840843
v -0.852752 0.400749 1.582975
v -0.748555 -0.110008 1.701538
v -0.214052 -0.410230 2.371137
v 0.380003 -0.961727 2.528368
v 0.214052 -0.410230 2.371137
v -0.713980 0.702071 1.659210
v -0.476077 0.899132 2.158056
v 0.476077 0.899132 2.158056
v 0.331326 0.565155 2.559914
v -0.755597 0.411716 2.346116
v 0.755597 0.411716 2.346116
v 0.713980 0.702071 1.659210
v -0.394325 -0.238686 1.695698
v 0.394325 -0.238686 1.695698
v -0.717301 -0.102008 1.931494
v -1.381379 0.178077 1.542842
v -1.090323 0.422107 1.659628
v 1.207970 0.310146 1.588322
v 1.090323 0.422107 1.659628
v 0.717301 -0.102008 1.931494
v -1.147014 0.048217 1.591349
v 0.736780 0.072512 1.794978
v -0.736780 0.072512 1.794978
v -0.854750 0.356817 1.840843
v -0.864912 0.016082 1.714970
v 1.147014 0.048217 1.591349
v 0.864912 0.016082 1.714970
v -1.207970 0.310146 1.588322
v -1.227002 0.480829 1.476402
v 1.227002 0.480829 1.476402
v 1.381379 0.178077 1.542842
v 0.748555 -0.110008 1.701538
v 0.852752 0.400749 1.582975
vn 0.6387 -0.1236 0.7595
vn -0.6387 -0.1236 0.7595
vn -0.5709 0.2145 0.7925
vn 0.5709 0.2145 0.7925
vn 0.4981 0.0686 0.8644
vn -0.1357 0.9746 0.1784
vn 0.6639 0.6892 0.2904
vn 0.3013 -0.9353 0.1855
vn -0.3013 -0.9353 0.1855
vn 0.7728 -0.4578 0.4396
vn -0.3354 0.3293 0.8826
vn -0.3273 0.3658 0.8712
vn 0.2619 -0.0527 0.9637
vn -0.3604 -0.2914 0.8861
vn 0.4179 -0.0835 0.9046
vn 0.1509 0.0081 0.9885
vn -0.1509 0.0081 0.9885
vn -0.0816 -0.1519 0.9850
vn -0.1403 -0.0020 0.9901
vn 0.2165 -0.6181 0.7557
vn -0.2165 -0.6181 0.7557
vn 0.5384 -0.1177 0.8344
vn -0.5384 -0.1177 0.8344
vn -0.0681 -0.1096 0.9916
vn -0.2291 -0.1594 0.9603
vn -1.0000 -0.0000 -0.0000
vn -0.0549 0.7581 0.6498
vn -0.2844 -0.0883 0.9546
vn 0.2844 -0.0883 0.9546
vn 0.4365 -0.2731 0.8572
vn -0.4365 -0.2731 0.8572
vn -0.5765 0.3900 0.7180
vn -0.2591 -0.1115 0.9594
vn -0.1890 0.8887 0.4178
vn 0.1890 0.8887 0.4178
vn 0.3495 0.6985 -0.6245
vn -0.3218 0.9460 -0.0404
vn 0.9700 0.0149 -0.2426
vn 0.2268 -0.2190 -0.9490
vn -0.2596 -0.1917 -0.9465
vn -0.3239 -0.7792 -0.5366
vn -0.3266 -0.8840 -0.3344
vn 0.3649 -0.9054 -0.2170
vn -0.3649 -0.9054 -0.2170
vn 0.9578 -0.2875 -0.0030
vn -0.9578 -0.2875 -0.0030
vn 0.3209 -0.0631 -0.9450
vn -0.4621 -0.2889 -0.8385
vn 0.1796 0.9544 -0.2384
vn -0.1796 0.9544 -0.2384
vn 0.8222 0.5404 0.1786
vn -0.8222 0.5404 0.1786
vn -0.0121 0.6311 0.7756
vn -0.2033 0.7158 0.6681
vn -0.9719 0.1588 0.1735
vn 0.8929 0.4316 0.1283
vn -0.8929 0.4316 0.1283
vn 0.9124 0.4046 0.0619
vn 0.1116 -0.9184 0.3796
vn -0.1116 -0.9184 0.3796
vn 0.5050 -0.8512 0.1428
vn -0.5050 -0.8512 0.1428
vn 0.9534 -0.2289 0.1963
vn -0.9534 -0.2289 0.1963
vn 0.3392 -0.9374 0.0787
vn 0.4749 -0.7702 0.4258
vn -0.2242 -0.0409 0.9737
vn -0.5090 0.8125 -0.2842
vn 0.6071 0.4465 0.6574
vn -0.6071 0.4465 0.6574
vn -0.6286 -0.3711 0.6835
vn -0.8998 -0.3267 -0.2893
vn 0.1468 0.8229 0.5489
vn 0.4308 -0.1172 0.8948
vn -0.4308 -0.1172 0.8948
vn 0.4767 -0.1465 0.8668
vn -0.4767 -0.1465 0.8668
vn -0.4080 -0.0844 0.9091
vn 0.6348 0.4599 0.6209
vn -0.0693 0.9639 0.2572
vn 0.1606 0.9728 0.1670
vn -0.2351 -0.1740 -0.9563
vn -0.1170 -0.2695 -0.9559
vn 0.1170 -0.2695 -0.9559
vn 0.6571 -0.4122 0.6311
vn -0.6571 -0.4122 0.6311
vn -0.3176 -0.9353 0.1561
vn 0.3176 -0.9353 0.1561
vn -0.4981 0.0686 0.8644
vn 0.1357 0.9746 0.1784
vn -0.6639 0.6892 0.2904
vn 0.9101 0.1642 0.3804
vn -0.9101 0.1642 0.3804
vn -0.7728 -0.4578 0.4396
vn 0.3354 0.3293 0.8826
vn 0.3273 0.3658 0.8712
vn -0.2619 -0.0527 0.9637
vn 0.3604 -0.2914 0.8861
vn -0.4179 -0.0835 0.9046
vn 0.0816 -0.1519 0.9850
vn 0.1403 -0.0020 0.9901
vn 0.2291 -0.1594 0.9603
vn 0.0681 -0.1096 0.9916
vn 0.0549 0.7581 0.6498
vn 0.1787 -0.1084 0.9779
vn -0.1787 -0.1084 0.9779
vn -0.0030 -0.6803 0.7329
vn 0.0030 -0.6803 0.7329
vn 0.5765 0.3900 0.7180
vn 0.2591 -0.1115 0.9594
vn -0.6864 0.2774 -0.6722
vn 0.6864 0.2774 -0.6722
vn 0.3218 0.9460 -0.0404
vn -0.3495 0.6985 -0.6245
vn -0.9700 0.0149 -0.2426
vn 0.2596 -0.1917 -0.9465
vn -0.2268 -0.2190 -0.9490
vn -0.0936 -0.9438 0.3169
vn 0.0936 -0.9438 0.3169
vn 0.9364 0.1995 -0.2887
vn -0.9364 0.1995 -0.2887
vn 0.3239 -0.7792 -0.5366
vn 0.3266 -0.8840 -0.3344
vn 0.1982 -0.9613 -0.1912
vn -0.1982 -0.9613 -0.1912
vn 0.4621 -0.2889 -0.8385
vn -0.3209 -0.0631 -0.9450
vn 0.1116 0.9413 -0.3186
vn -0.1116 0.9413 -0.3186
vn 0.4526 0.4089 -0.7924
vn -0.4526 0.4089 -0.7924
vn 0.5258 0.5514 0.6477
vn -0.5258 0.5514 0.6477
vn 0.2033 0.7158 0.6681
vn 0.0121 0.6311 0.7756
vn 0.9719 0.1588 0.1735
vn -0.9124 0.4046 0.0619
vn -0.3392 -0.9374 0.0787
vn -0.4749 -0.7702 0.4258
vn 0.2242 -0.0409 0.9737
vn 0.5090 0.8125 -0.2842
vn 0.6286 -0.3711 0.6835
vn 0.8998 -0.3267 -0.2893
vn -0.1468 0.8229 0.5489
vn 0.4080 -0.0844 0.9091
vn 0.4312 -0.8978 0.0898
vn -0.4312 -0.8978 0.0898
vn -0.6348 0.4599 0.6209
vn 0.0693 0.9639 0.2572
vn -0.1606 0.9728 0.1670
vn 0.2351 -0.1740 -0.9563
vt 0.872991 0.635741
vt 0.862443 0.596593
vt 0.985909 0.614765
vt 0.870130 0.847420
vt 0.859576 0.886499
vt 0.746648 0.865567
vt 0.760993 0.578600
vt 0.971579 0.829402
vt 0.952217 0.951120
vt 0.805090 0.960711
vt 0.927474 0.709909
vt 0.594387 0.161305
vt 0.637384 0.236560
vt 0.521560 0.186180
vt 0.361670 0.236871
vt 0.404419 0.161549
vt 0.477250 0.186211
vt 0.676905 0.318114
vt 0.690336 0.258876
vt 0.405083 0.401787
vt 0.322389 0.318360
vt 0.415774 0.349832
vt 0.499559 0.348762
vt 0.583392 0.349746
vt 0.594136 0.401751
vt 0.606924 0.295683
vt 0.392200 0.295871
vt 0.572769 0.284808
vt 0.426294 0.284946
vt 0.426840 0.303454
vt 0.506809 0.083163
vt 0.499253 0.078470
vt 0.531046 0.065463
vt 0.491709 0.083176
vt 0.467433 0.065547
vt 0.499378 0.166838
vt 0.499409 0.192167
vt 0.499425 0.203867
vt 0.499416 0.197278
vt 0.592319 0.280978
vt 0.406760 0.281161
vt 0.412469 0.311792
vt 0.572252 0.303336
vt 0.586654 0.311661
vt 0.528820 0.428638
vt 0.499582 0.428449
vt 0.470353 0.428636
vt 0.665541 0.388861
vt 0.333786 0.388954
vt 0.249606 0.310135
vt 0.749831 0.309734
vt 0.621208 0.027572
vt 0.509850 0.027661
vt 0.377189 0.028080
vt 0.385906 0.088670
vt 0.308871 0.259268
vt 0.174238 0.147055
vt 0.145543 0.034149
vt 0.215322 0.109558
vt 0.853368 0.032759
vt 0.612702 0.088293
vt 0.775817 0.171476
vt 0.799619 0.200735
vt 0.223355 0.172294
vt 0.199694 0.201554
vt 0.816868 0.189103
vt 0.992653 0.195204
vt 0.182455 0.190001
vt 0.917814 0.401169
vt 0.854591 0.240149
vt 0.144976 0.241024
vt 0.082389 0.401774
vt 0.007149 0.196617
vt 0.857515 0.332883
vt 0.142320 0.333512
vt 0.772738 0.408227
vt 0.803585 0.484791
vt 0.227060 0.408404
vt 0.783672 0.108582
vt 0.824971 0.146027
vt 0.168558 0.855991
vt 0.094662 0.720903
vt 0.201372 0.802563
vt 0.215677 0.754168
vt 0.519798 0.754168
vt 0.433514 0.619000
vt 0.640809 0.720906
vt 0.435239 0.739648
vt 0.406863 0.727801
vt 0.300238 0.739649
vt 0.301958 0.619003
vt 0.328613 0.727802
vt 0.309401 0.912618
vt 0.213381 0.181608
vt 0.534105 0.802563
vt 0.566919 0.855991
vt 0.661250 0.682374
vt 0.712556 0.698473
vt 0.705602 0.558824
vt 0.029870 0.558826
vt 0.106582 0.585020
vt 0.074222 0.682374
vt 0.556865 0.602615
vt 0.628890 0.585020
vt 0.178610 0.602613
vt 0.924919 0.522032
vt 0.807646 0.772835
vt 0.780348 0.700318
vt 0.488529 0.027703
vt 0.196450 0.484829
vt 0.426071 0.912616
vt 0.785842 0.180781
vt 0.022915 0.698478
s 0
f 78/121/55 87/122/55 84/123/55
f 86/124/56 82/125/56 85/126/56
f 87/122/57 78/121/57 76/127/57
f 82/125/58 86/124/58 77/128/58
f 82/125/59 77/128/59 80/129/59
f 82/125/60 80/129/60 81/130/60
f 84/123/61 83/131/61 78/121/61
f 95/132/62 97/133/62 110/134/62
f 104/135/63 94/136/63 108/137/63
f 98/138/64 97/133/64 124/139/64
f 99/140/65 105/141/65 106/142/65
f 88/143/66 107/144/66 122/145/66
f 98/138/67 107/144/67 119/146/67
f 104/135/68 113/147/68 105/141/68
f 110/134/69 97/133/69 100/148/69
f 100/148/70 88/143/70 110/134/70
f 88/143/71 120/149/71 108/137/71
f 106/142/72 116/150/72 88/143/72
f 120/149/73 88/143/73 116/150/73
f 111/151/74 89/152/74 132/153/74
f 89/152/75 101/154/75 96/155/75
f 110/134/76 111/151/76 132/153/76
f 101/154/77 108/137/77 96/155/77
f 110/134/78 89/152/78 111/151/78
f 108/137/79 89/152/79 109/156/79
f 90/157/80 103/158/80 102/159/80
f 90/157/81 103/158/81 108/137/81
f 103/158/82 110/134/82 88/143/82
f 108/137/83 103/158/83 88/143/83
f 97/133/84 119/146/84 118/160/84
f 113/147/85 104/135/85 114/161/85
f 106/142/86 113/147/86 112/162/86
f 115/163/87 117/164/87 107/144/87
f 88/143/88 137/165/88 91/166/88
f 121/167/89 88/143/89 91/166/89
f 98/138/90 137/168/90 122/145/90
f 105/141/91 121/169/91 138/170/91
f 124/139/92 139/171/92 98/138/92
f 127/172/93 132/153/93 126/173/93
f 127/174/94 96/155/94 131/175/94
f 94/136/95 104/135/95 123/176/95
f 130/177/96 93/178/96 141/179/96
f 93/180/97 133/181/97 127/172/97
f 131/175/98 93/178/98 127/174/98
f 124/139/99 148/182/99 128/183/99
f 143/184/100 123/176/100 152/185/100
f 161/186/101 93/180/101 92/187/101
f 129/188/102 93/178/102 130/177/102
f 125/189/103 140/190/103 92/187/103
f 134/191/104 125/192/104 92/193/104
f 136/194/105 139/171/105 140/190/105
f 138/170/106 135/195/106 134/191/106
f 137/196/107 125/189/107 91/197/107
f 121/198/108 125/192/108 135/195/108
f 123/176/109 138/170/109 152/185/109
f 128/183/110 140/190/110 139/171/110
f 134/191/111 152/185/111 138/170/111
f 140/190/112 128/183/112 161/186/112
f 124/139/113 142/199/113 148/182/113
f 141/179/114 123/176/114 143/184/114
f 124/139/115 95/132/115 142/199/115
f 94/136/116 123/176/116 141/179/116
f 95/132/117 133/181/117 142/199/117
f 141/179/118 131/175/118 94/136/118
f 142/199/119 160/200/119 148/182/119
f 145/201/120 144/202/120 156/203/120
f 156/203/121 144/202/121 149/204/121
f 154/205/122 148/206/122 159/207/122
f 148/206/123 155/208/123 150/209/123
f 153/210/124 143/211/124 151/212/124
f 152/213/125 145/201/125 151/212/125
f 143/184/126 152/185/126 151/214/126
f 154/205/127 155/208/127 148/206/127
f 155/208/128 146/215/128 147/216/128
f 156/203/129 153/210/129 145/201/129
f 155/208/130 147/216/130 150/209/130
f 145/201/131 153/210/131 151/212/131
f 156/203/132 149/204/132 153/210/132
f 159/207/133 158/217/133 147/218/133
f 147/218/134 158/217/134 128/219/134
f 152/220/135 129/221/135 157/222/135
f 160/223/136 161/224/136 158/217/136
f 158/217/137 159/207/137 160/223/137
f 144/202/138 157/222/138 130/225/138
f 84/123/139 87/122/139 75/226/139
f 74/227/140 86/124/140 85/126/140
f 75/226/141 87/122/141 76/127/141
f 77/128/142 86/124/142 74/227/142
f 78/121/143 79/228/143 76/127/143
f 78/121/144 83/131/144 79/228/144
f 85/126/145 82/125/145 81/130/145
f 95/132/146 110/134/146 132/153/146
f 96/155/147 108/137/147 94/136/147
f 105/141/148 123/176/148 104/135/148
f 122/145/149 107/144/149 98/138/149
f 88/143/150 99/140/150 106/142/150
f 105/141/151 113/147/151 106/142/151
f 97/133/152 98/138/152 119/146/152
f 108/137/153 120/149/153 104/135/153
f 107/144/154 88/143/154 115/163/154
f 100/148/155 115/163/155 88/143/155
f 110/134/156 109/156/156 89/152/156
f 108/137/157 101/154/157 89/152/157
f 90/157/158 110/134/158 103/158/158
f 90/157/159 109/156/159 110/134/159
f 108/137/160 109/156/160 90/157/160
f 100/148/161 97/133/161 118/160/161
f 114/161/162 104/135/162 120/149/162
f 107/144/163 117/164/163 119/146/163
f 116/150/164 106/142/164 112/162/164
f 88/143/165 122/145/165 137/165/165
f 121/167/166 99/140/166 88/143/166
f 98/138/167 139/171/167 137/168/167
f 105/141/168 99/140/168 121/169/168
f 123/176/169 105/141/169 138/170/169
f 127/172/170 133/181/170 132/153/170
f 127/174/171 126/229/171 96/155/171
f 132/153/172 89/152/172 126/229/172
f 126/229/173 89/152/173 96/155/173
f 95/132/174 132/153/174 133/181/174
f 131/175/175 96/155/175 94/136/175
f 95/132/176 124/139/176 97/133/176
f 160/200/177 142/199/177 93/180/177
f 93/180/178 142/199/178 133/181/178
f 131/175/179 141/179/179 93/178/179
f 161/186/180 160/200/180 93/180/180
f 129/188/181 92/193/181 93/178/181
f 125/189/182 136/194/182 140/190/182
f 134/191/183 135/195/183 125/192/183
f 92/187/184 140/190/184 161/186/184
f 129/188/185 134/191/185 92/193/185
f 136/194/186 137/196/186 139/171/186
f 138/170/187 121/198/187 135/195/187
f 137/196/188 136/194/188 125/189/188
f 121/198/189 91/230/189 125/192/189
f 124/139/190 128/183/190 139/171/190
f 134/191/191 129/188/191 152/185/191
f 141/179/192 143/184/192 130/177/192
f 147/216/193 146/215/193 159/207/193
f 146/215/194 154/205/194 159/207/194
f 149/204/195 144/202/195 143/211/195
f 128/231/196 150/209/196 147/216/196
f 148/182/197 150/232/197 128/183/197
f 149/204/198 143/211/198 153/210/198
f 146/215/199 155/208/199 154/205/199
f 159/207/200 148/206/200 160/223/200
f 130/225/201 143/211/201 144/202/201
f 144/202/202 145/233/202 157/222/202
f 145/233/203 152/220/203 157/222/203
f 128/219/204 158/217/204 161/224/204
f 130/225/205 157/222/205 129/221/205
